<?xml version="1.0" encoding="UTF-8"?>
<!DOCTYPE svg PUBLIC "-//W3C//DTD SVG 1.1//EN" "http://www.w3.org/Graphics/SVG/1.1/DTD/svg11.dtd">
<svg xmlns="http://www.w3.org/2000/svg" version="1.1" width="246px" height="188px" style="shape-rendering:geometricPrecision; text-rendering:geometricPrecision; image-rendering:optimizeQuality; fill-rule:evenodd; clip-rule:evenodd" xmlns:xlink="http://www.w3.org/1999/xlink">
<g><path style="opacity:0.981" fill="#fefefe" d="M 192.5,-0.5 C 200.167,-0.5 207.833,-0.5 215.5,-0.5C 230.728,3.7271 240.728,13.3938 245.5,28.5C 245.5,34.8333 245.5,41.1667 245.5,47.5C 243.241,55.4184 240.074,63.0851 236,70.5C 235.937,89.8765 235.27,109.21 234,128.5C 227.341,153.319 211.675,162.653 187,156.5C 174.467,160.832 162.301,159.832 150.5,153.5C 128.476,169.18 104.476,180.514 78.5,187.5C 69.8333,187.5 61.1667,187.5 52.5,187.5C 38.4275,183.262 29.0941,174.095 24.5,160C 18.0949,159.198 12.0949,157.198 6.5,154C 3.48842,150.846 1.15508,147.346 -0.5,143.5C -0.5,138.5 -0.5,133.5 -0.5,128.5C 6.36507,110.94 15.6984,94.7735 27.5,80C 29.8877,78.1395 32.5544,76.8061 35.5,76C 37.7997,71.3294 37.9664,66.4961 36,61.5C 24.4162,36.9907 32.0829,23.9907 59,22.5C 73.8109,22.728 88.6442,22.8947 103.5,23C 111.841,23.4443 119.841,25.2777 127.5,28.5C 147.666,15.246 169.332,5.57936 192.5,-0.5 Z"/></g>
<g><path style="opacity:1" fill="#1e74b4" d="M 218.5,60.5 C 212.084,68.9766 205.418,77.31 198.5,85.5C 186.169,97.3118 173.503,108.645 160.5,119.5C 144.705,131.239 128.038,141.739 110.5,151C 98.0699,157.478 84.9032,161.311 71,162.5C 61.2381,162.878 56.4048,158.211 56.5,148.5C 58.47,137.227 63.1367,127.227 70.5,118.5C 72.5,118.5 74.5,118.5 76.5,118.5C 70.4093,126.337 65.576,135.003 62,144.5C 61.3333,147.5 61.3333,150.5 62,153.5C 63.214,155.049 64.714,156.215 66.5,157C 71.8798,157.596 77.2131,157.262 82.5,156C 98.3053,151.356 112.972,144.522 126.5,135.5C 129.167,135.5 131.833,135.5 134.5,135.5C 135.461,133.735 135.795,131.735 135.5,129.5C 141.613,125.938 147.613,122.104 153.5,118C 156.288,116.281 158.621,114.115 160.5,111.5C 161.492,111.672 162.158,111.338 162.5,110.5C 175.772,100.528 187.772,89.1942 198.5,76.5C 207.401,68.3619 214.068,58.6953 218.5,47.5C 221.57,42.825 222.07,37.825 220,32.5C 219.25,31.8742 218.416,31.3742 217.5,31C 204.136,30.173 191.469,32.8396 179.5,39C 164.287,46.7658 149.621,55.2658 135.5,64.5C 134.448,62.744 132.781,62.0773 130.5,62.5C 149.426,48.196 170.092,36.696 192.5,28C 225.879,19.207 234.545,30.0404 218.5,60.5 Z"/></g>
<g><path style="opacity:1" fill="#fdfdfd" d="M 218.5,47.5 C 212.021,46.5093 205.354,46.176 198.5,46.5C 194.167,46.5 189.833,46.5 185.5,46.5C 185.5,52.1667 185.5,57.8333 185.5,63.5C 177.5,63.5 169.5,63.5 161.5,63.5C 160.504,79.3246 160.17,95.3246 160.5,111.5C 158.621,114.115 156.288,116.281 153.5,118C 147.613,122.104 141.613,125.938 135.5,129.5C 135.5,107.833 135.5,86.1667 135.5,64.5C 149.621,55.2658 164.287,46.7658 179.5,39C 191.469,32.8396 204.136,30.173 217.5,31C 218.416,31.3742 219.25,31.8742 220,32.5C 222.07,37.825 221.57,42.825 218.5,47.5 Z"/></g>
<g><path style="opacity:1" fill="#045322" d="M 88.5,45.5 C 100.973,75.5865 113.64,105.587 126.5,135.5C 117.5,135.5 108.5,135.5 99.5,135.5C 97.59,129.844 95.2567,124.344 92.5,119C 87.1771,118.501 81.8437,118.334 76.5,118.5C 74.5,118.5 72.5,118.5 70.5,118.5C 67.8333,118.5 65.1667,118.5 62.5,118.5C 60.59,124.156 58.2567,129.656 55.5,135C 46.8397,135.5 38.1731,135.666 29.5,135.5C 34.4138,123.837 39.7471,112.337 45.5,101C 58.8458,100.833 72.1791,100.333 85.5,99.5C 77.5946,81.6952 70.2613,63.6952 63.5,45.5C 71.8333,45.5 80.1667,45.5 88.5,45.5 Z"/></g>
<g><path style="opacity:1" fill="#ae140b" d="M 88.5,45.5 C 96.1667,45.5 103.833,45.5 111.5,45.5C 111.5,51.1667 111.5,56.8333 111.5,62.5C 118.982,63.492 126.648,63.8254 134.5,63.5C 134.5,87.5 134.5,111.5 134.5,135.5C 131.833,135.5 129.167,135.5 126.5,135.5C 113.64,105.587 100.973,75.5865 88.5,45.5 Z"/></g>
<g><path style="opacity:1" fill="#ad120b" d="M 198.5,46.5 C 198.5,56.5 198.5,66.5 198.5,76.5C 187.772,89.1942 175.772,100.528 162.5,110.5C 161.504,95.0089 161.17,79.3422 161.5,63.5C 169.5,63.5 177.5,63.5 185.5,63.5C 185.5,57.8333 185.5,52.1667 185.5,46.5C 189.833,46.5 194.167,46.5 198.5,46.5 Z"/></g>
<g><path style="opacity:1" fill="#005223" d="M 198.5,46.5 C 205.354,46.176 212.021,46.5093 218.5,47.5C 214.068,58.6953 207.401,68.3619 198.5,76.5C 198.5,66.5 198.5,56.5 198.5,46.5 Z"/></g>
<g><path style="opacity:1" fill="#c66a53" d="M 111.5,62.5 C 117.833,62.5 124.167,62.5 130.5,62.5C 132.781,62.0773 134.448,62.744 135.5,64.5C 135.5,86.1667 135.5,107.833 135.5,129.5C 135.795,131.735 135.461,133.735 134.5,135.5C 134.5,111.5 134.5,87.5 134.5,63.5C 126.648,63.8254 118.982,63.492 111.5,62.5 Z"/></g>
<g><path style="opacity:1" fill="#d5866c" d="M 161.5,63.5 C 161.17,79.3422 161.504,95.0089 162.5,110.5C 162.158,111.338 161.492,111.672 160.5,111.5C 160.17,95.3246 160.504,79.3246 161.5,63.5 Z"/></g>
<g><path style="opacity:1" fill="#015323" d="M 218.5,60.5 C 218.5,85.5 218.5,110.5 218.5,135.5C 211.833,135.5 205.167,135.5 198.5,135.5C 198.5,118.833 198.5,102.167 198.5,85.5C 205.418,77.31 212.084,68.9766 218.5,60.5 Z"/></g>
<g><path style="opacity:1" fill="#ac150b" d="M 198.5,85.5 C 198.5,102.167 198.5,118.833 198.5,135.5C 185.833,135.5 173.167,135.5 160.5,135.5C 160.5,130.167 160.5,124.833 160.5,119.5C 173.503,108.645 186.169,97.3118 198.5,85.5 Z"/></g>
<g><path style="opacity:1" fill="#fbfcfd" d="M 76.5,118.5 C 81.8437,118.334 87.1771,118.501 92.5,119C 95.2567,124.344 97.59,129.844 99.5,135.5C 108.5,135.5 117.5,135.5 126.5,135.5C 112.972,144.522 98.3053,151.356 82.5,156C 77.2131,157.262 71.8798,157.596 66.5,157C 64.714,156.215 63.214,155.049 62,153.5C 61.3333,150.5 61.3333,147.5 62,144.5C 65.576,135.003 70.4093,126.337 76.5,118.5 Z"/></g>
</svg>
