<?xml version="1.0" encoding="UTF-8"?>
<!DOCTYPE svg PUBLIC "-//W3C//DTD SVG 1.1//EN" "http://www.w3.org/Graphics/SVG/1.1/DTD/svg11.dtd">
<svg xmlns="http://www.w3.org/2000/svg" version="1.1" width="14px" height="21px" style="shape-rendering:geometricPrecision; text-rendering:geometricPrecision; image-rendering:optimizeQuality; fill-rule:evenodd; clip-rule:evenodd" xmlns:xlink="http://www.w3.org/1999/xlink">
<g><path style="opacity:0.905" fill="#fe1b60" d="M -0.5,-0.5 C 3.5,-0.5 7.5,-0.5 11.5,-0.5C 10.7659,0.707917 10.4326,2.04125 10.5,3.5C 10.5,9.16667 10.5,14.8333 10.5,20.5C 9.83333,20.5 9.16667,20.5 8.5,20.5C 7.35989,18.2198 6.19322,15.8864 5,13.5C 2.99058,15.522 1.49058,17.8554 0.5,20.5C 0.166667,20.5 -0.166667,20.5 -0.5,20.5C -0.5,13.5 -0.5,6.5 -0.5,-0.5 Z"/></g>
<g><path style="opacity:0.69" fill="#ad0034" d="M 11.5,-0.5 C 11.8333,-0.5 12.1667,-0.5 12.5,-0.5C 12.5,0.166667 12.8333,0.5 13.5,0.5C 13.5,1.5 13.5,2.5 13.5,3.5C 12.5,3.5 11.5,3.5 10.5,3.5C 10.4326,2.04125 10.7659,0.707917 11.5,-0.5 Z"/></g>
</svg>
