<?xml version="1.0" encoding="UTF-8"?>
<!DOCTYPE svg PUBLIC "-//W3C//DTD SVG 1.1//EN" "http://www.w3.org/Graphics/SVG/1.1/DTD/svg11.dtd">
<svg xmlns="http://www.w3.org/2000/svg" version="1.1" width="512px" height="512px" style="shape-rendering:geometricPrecision; text-rendering:geometricPrecision; image-rendering:optimizeQuality; fill-rule:evenodd; clip-rule:evenodd" xmlns:xlink="http://www.w3.org/1999/xlink">
<g><path style="opacity:0.941" fill="#7f7f7f" d="M 248.5,-0.5 C 253.167,-0.5 257.833,-0.5 262.5,-0.5C 271.392,2.5567 277.559,8.5567 281,17.5C 280.374,26.7626 283.54,34.2626 290.5,40C 324.959,47.7257 354.959,63.5591 380.5,87.5C 401.571,81.7839 415.738,89.1173 423,109.5C 424.939,119.675 422.772,128.841 416.5,137C 432.974,170.331 438.641,205.331 433.5,242C 428.082,245.684 423.582,244.85 420,239.5C 420.832,216.491 418.499,193.824 413,171.5C 410.664,163.163 407.498,155.163 403.5,147.5C 379.033,151.108 364.699,140.775 360.5,116.5C 361.673,109.506 363.506,102.839 366,96.5C 342.689,75.4268 315.523,61.5934 284.5,55C 271.479,47.81 264.979,36.6434 265,21.5C 262.081,15.9752 257.581,14.1419 251.5,16C 249.714,16.7845 248.214,17.9512 247,19.5C 245.261,26.1306 243.594,32.7973 242,39.5C 239.45,45.1029 235.617,49.6029 230.5,53C 217.027,57.2687 203.694,61.9354 190.5,67C 185.729,95.7245 169.062,107.058 140.5,101C 133.127,108.704 126.127,116.704 119.5,125C 109.667,127.167 105.833,123.333 108,113.5C 114.147,105.372 120.647,97.5385 127.5,90C 116.963,72.6996 118.63,56.6996 132.5,42C 153.136,29.3759 170.803,32.5426 185.5,51.5C 196.899,46.8992 208.565,43.0659 220.5,40C 227.459,34.2231 230.625,26.7231 230,17.5C 233.441,8.5567 239.608,2.5567 248.5,-0.5 Z M 150.5,50.5 C 163.411,49.7395 171.077,55.7395 173.5,68.5C 169.402,85.3818 159.402,90.2151 143.5,83C 134.543,73.9695 134.21,64.6362 142.5,55C 145.099,53.205 147.766,51.705 150.5,50.5 Z M 387.5,101.5 C 403.323,100.839 409.489,108.172 406,123.5C 400.199,131.873 392.699,133.707 383.5,129C 376.989,122.749 375.823,115.582 380,107.5C 382.114,104.879 384.614,102.879 387.5,101.5 Z"/></g>
<g><path style="opacity:0.94" fill="#7f7f7f" d="M 403.5,-0.5 C 407.167,-0.5 410.833,-0.5 414.5,-0.5C 439.422,6.65975 448.922,22.9931 443,48.5C 433.695,67.9013 418.528,75.0679 397.5,70C 378.613,62.0668 370.78,47.9001 374,27.5C 378.23,12.0996 388.063,2.76629 403.5,-0.5 Z M 405.5,15.5 C 419.258,15.2582 427.258,21.9248 429.5,35.5C 427.117,49.724 418.783,56.224 404.5,55C 390.578,49.3214 386.412,39.4881 392,25.5C 395.404,20.5615 399.904,17.2281 405.5,15.5 Z"/></g>
<g><path style="opacity:0.93" fill="#7f7f7f" d="M 66.5,27.5 C 71.6966,27.5979 76.0299,29.5979 79.5,33.5C 82.0391,30.4524 85.2058,28.4524 89,27.5C 93.6025,28.2688 96.4359,30.9354 97.5,35.5C 96.5193,39.4641 94.5193,42.7974 91.5,45.5C 94.5193,48.2026 96.5193,51.5359 97.5,55.5C 96.1347,61.5083 92.4681,64.0083 86.5,63C 84.0232,61.3573 81.6898,59.524 79.5,57.5C 77.6841,58.8149 76.0175,60.3149 74.5,62C 64.8462,65.0121 60.6795,61.5121 62,51.5C 64.0176,49.6499 65.8509,47.6499 67.5,45.5C 65.8509,43.3501 64.0176,41.3501 62,39.5C 60.3087,34.1311 61.8087,30.1311 66.5,27.5 Z"/></g>
<g><path style="opacity:0.941" fill="#808080" d="M 443.5,81.5 C 445.527,81.3379 447.527,81.5045 449.5,82C 452.646,84.3116 455.646,86.8116 458.5,89.5C 461.354,86.8116 464.354,84.3116 467.5,82C 475.125,80.6258 478.625,83.7924 478,91.5C 476.106,95.2357 473.606,98.5691 470.5,101.5C 473.577,104.409 476.077,107.742 478,111.5C 478.488,119.669 474.654,122.836 466.5,121C 463.984,118.317 461.317,115.817 458.5,113.5C 455.646,116.188 452.646,118.688 449.5,121C 440.836,122 437.336,118.166 439,109.5C 441.683,106.984 444.183,104.317 446.5,101.5C 444.183,98.6826 441.683,96.0159 439,93.5C 437.309,88.1311 438.809,84.1311 443.5,81.5 Z"/></g>
<g><path style="opacity:0.953" fill="#808080" d="M 265.5,511.5 C 258.5,511.5 251.5,511.5 244.5,511.5C 238.686,510.057 233.02,507.89 227.5,505C 223.405,497.73 225.239,492.896 233,490.5C 258.99,501.835 278.99,495.169 293,470.5C 295.521,464.042 296.521,457.376 296,450.5C 268.726,448.514 241.226,447.847 213.5,448.5C 213.126,456.351 214.126,464.018 216.5,471.5C 214.831,478.68 210.497,480.847 203.5,478C 200.374,473.35 198.54,468.183 198,462.5C 197.501,457.845 197.334,453.179 197.5,448.5C 146.499,448.667 95.4989,448.5 44.5,448C 31.6526,444.823 26.4859,436.656 29,423.5C 30.3333,419.5 31.6667,415.5 33,411.5C 42.8356,396.5 52.1689,381.167 61,365.5C 68.6342,348.631 73.3009,330.964 75,312.5C 75.0686,273.147 75.7353,233.813 77,194.5C 79.178,177.12 83.8446,160.453 91,144.5C 98.1616,140.554 102.995,142.387 105.5,150C 99.4976,165.007 95.3309,180.507 93,196.5C 91.7285,235.812 91.0618,275.145 91,314.5C 89.7044,330.986 85.871,346.819 79.5,362C 196.833,362.667 314.167,362.667 431.5,362C 426.213,349.689 422.713,336.856 421,323.5C 419.47,305.862 419.137,288.196 420,270.5C 423.804,264.623 428.471,263.956 434,268.5C 435.301,283.074 435.967,297.74 436,312.5C 437.812,334.082 443.812,354.416 454,373.5C 462,386.167 470,398.833 478,411.5C 481.869,419.097 483.202,427.097 482,435.5C 479.458,442.862 474.292,447.028 466.5,448C 415.168,448.5 363.834,448.667 312.5,448.5C 312.547,481.466 296.88,502.466 265.5,511.5 Z M 72.5,378.5 C 194.5,378.333 316.5,378.5 438.5,379C 444.711,389.926 451.544,400.426 459,410.5C 462.475,416.282 464.975,422.449 466.5,429C 466.415,430.107 466.081,431.107 465.5,432C 325.5,432.667 185.5,432.667 45.5,432C 44.4238,430.274 44.2571,428.441 45,426.5C 46.7834,420.933 49.1167,415.599 52,410.5C 59.5924,400.314 66.4258,389.647 72.5,378.5 Z"/></g>
<g><path style="opacity:0.873" fill="#808080" d="M 208.5,215.5 C 216.658,214.823 220.158,218.49 219,226.5C 214.486,232.747 209.486,233.08 204,227.5C 202.474,222.239 203.974,218.239 208.5,215.5 Z"/></g>
<g><path style="opacity:0.928" fill="#7e7e7e" d="M 296.5,215.5 C 306.272,216.05 309.105,220.717 305,229.5C 297.861,233.446 293.028,231.613 290.5,224C 291.161,220.179 293.161,217.346 296.5,215.5 Z"/></g>
<g><path style="opacity:0.93" fill="#7f7f7f" d="M 246.5,245.5 C 257.269,244.193 267.269,246.36 276.5,252C 281.451,255.554 282.618,260.054 280,265.5C 278.177,267.167 276.01,268.167 273.5,268.5C 269.56,267.196 265.893,265.363 262.5,263C 256.848,261.064 251.182,261.064 245.5,263C 242.22,265.287 238.72,267.12 235,268.5C 225.267,264.835 224.1,259.335 231.5,252C 236.367,249.226 241.367,247.059 246.5,245.5 Z"/></g>
</svg>
