<?xml version="1.0" encoding="UTF-8"?>
<!DOCTYPE svg PUBLIC "-//W3C//DTD SVG 1.1//EN" "http://www.w3.org/Graphics/SVG/1.1/DTD/svg11.dtd">
<svg xmlns="http://www.w3.org/2000/svg" version="1.1" width="512px" height="512px" style="shape-rendering:geometricPrecision; text-rendering:geometricPrecision; image-rendering:optimizeQuality; fill-rule:evenodd; clip-rule:evenodd" xmlns:xlink="http://www.w3.org/1999/xlink">
<g><path style="opacity:0.971" fill="#34495e" d="M 170.5,-0.5 C 183.5,-0.5 196.5,-0.5 209.5,-0.5C 290.32,11.818 344.487,56.4847 372,133.5C 389.374,197.275 378.541,255.608 339.5,308.5C 334.58,312.59 330.08,317.257 326,322.5C 319.589,327.747 313.755,333.414 308.5,339.5C 249.404,382.442 185.404,391.275 116.5,366C 61.7692,341.936 25.2692,301.436 7,244.5C 3.83985,232.834 1.33985,221.168 -0.5,209.5C -0.5,196.167 -0.5,182.833 -0.5,169.5C 11.882,88.2808 56.882,34.1142 134.5,7C 146.481,3.73096 158.481,1.23096 170.5,-0.5 Z"/></g>
<g><path style="opacity:1" fill="#5d6d7e" d="M 170.5,20.5 C 243.039,16.1835 298.539,44.5168 337,105.5C 360.121,148.037 365.121,192.704 352,239.5C 327.635,307.943 279.468,347.443 207.5,358C 134.376,362.525 78.8759,333.692 41,271.5C 14.0581,217.656 13.7248,163.656 40,109.5C 69.0048,58.6745 112.505,29.0078 170.5,20.5 Z"/></g>
<g><path style="opacity:1" fill="#cde1f1" d="M 178.5,33.5 C 243.115,32.38 292.282,59.0467 326,113.5C 357.076,176.147 351.409,235.147 309,290.5C 263.624,339.64 208.457,355.807 143.5,339C 81.8708,316.701 45.7041,273.201 35,208.5C 29.7912,152.438 48.2912,105.938 90.5,69C 116.405,48.5436 145.738,36.7102 178.5,33.5 Z"/></g>
<g><path style="opacity:1" fill="#fefefe" d="M 172.5,53.5 C 177.179,53.3342 181.845,53.5008 186.5,54C 194.827,57.4934 197.66,63.6601 195,72.5C 192.067,77.7215 187.567,80.5549 181.5,81C 164.01,82.2462 147.677,87.2462 132.5,96C 119.386,97.5523 113.552,91.7189 115,78.5C 115.792,76.4127 116.959,74.5793 118.5,73C 135.366,62.9924 153.366,56.4924 172.5,53.5 Z"/></g>
<g><path style="opacity:1" fill="#fefefe" d="M 89.5,98.5 C 97.6634,97.164 103.497,100.164 107,107.5C 107.887,112.072 107.22,116.405 105,120.5C 78.1855,155.578 73.0188,193.745 89.5,235C 88.1667,245.667 82.1667,250.333 71.5,249C 68.8976,248.117 66.7309,246.617 65,244.5C 44.8672,196.094 49.8672,150.427 80,107.5C 82.4057,103.592 85.5724,100.592 89.5,98.5 Z"/></g>
<g><path style="opacity:0.963" fill="#5c6c7d" d="M 339.5,308.5 C 348.833,318.167 358.167,327.833 367.5,337.5C 358.758,347.746 349.425,357.579 339.5,367C 338.906,367.464 338.239,367.631 337.5,367.5C 327.833,358.167 318.167,348.833 308.5,339.5C 313.755,333.414 319.589,327.747 326,322.5C 330.08,317.257 334.58,312.59 339.5,308.5 Z"/></g>
<g><path style="opacity:0.97" fill="#34495d" d="M 398.5,338.5 C 396.167,340.167 394.167,342.167 392.5,344.5C 389.5,346.833 386.833,349.5 384.5,352.5C 368.833,367.5 353.5,382.833 338.5,398.5C 329.197,392.087 327.031,383.754 332,373.5C 334.04,371.63 335.873,369.63 337.5,367.5C 338.239,367.631 338.906,367.464 339.5,367C 349.425,357.579 358.758,347.746 367.5,337.5C 374.365,329.16 382.698,327.327 392.5,332C 394.706,334.037 396.706,336.203 398.5,338.5 Z"/></g>
<g><path style="opacity:0.978" fill="#fe8e31" d="M 398.5,338.5 C 434.493,373.66 469.993,409.326 505,445.5C 507.774,450.367 509.941,455.367 511.5,460.5C 511.5,466.5 511.5,472.5 511.5,478.5C 506.833,495.833 495.833,506.833 478.5,511.5C 472.5,511.5 466.5,511.5 460.5,511.5C 453.211,509.354 446.544,505.854 440.5,501C 406.299,466.965 372.299,432.799 338.5,398.5C 353.5,382.833 368.833,367.5 384.5,352.5C 418.465,386.965 452.632,421.299 487,455.5C 491.129,461.199 492.462,467.532 491,474.5C 488.873,479.599 486.373,484.433 483.5,489C 484.499,494.004 487.499,495.67 492.5,494C 505.114,480.247 506.614,465.414 497,449.5C 461.965,414.632 427.132,379.632 392.5,344.5C 394.167,342.167 396.167,340.167 398.5,338.5 Z"/></g>
<g><path style="opacity:1" fill="#fdcd58" d="M 392.5,344.5 C 427.132,379.632 461.965,414.632 497,449.5C 506.614,465.414 505.114,480.247 492.5,494C 487.499,495.67 484.499,494.004 483.5,489C 486.373,484.433 488.873,479.599 491,474.5C 492.462,467.532 491.129,461.199 487,455.5C 452.632,421.299 418.465,386.965 384.5,352.5C 386.833,349.5 389.5,346.833 392.5,344.5 Z"/></g>
</svg>
