<?xml version="1.0" encoding="UTF-8"?>
<!DOCTYPE svg PUBLIC "-//W3C//DTD SVG 1.1//EN" "http://www.w3.org/Graphics/SVG/1.1/DTD/svg11.dtd">
<svg xmlns="http://www.w3.org/2000/svg" version="1.1" width="500px" height="500px" style="shape-rendering:geometricPrecision; text-rendering:geometricPrecision; image-rendering:optimizeQuality; fill-rule:evenodd; clip-rule:evenodd" xmlns:xlink="http://www.w3.org/1999/xlink">
<g><path style="opacity:0.576" fill="#e89290" d="M 251.5,137.5 C 250.542,137.047 249.708,136.381 249,135.5C 248.26,137.319 247.093,138.652 245.5,139.5C 245.886,137.063 247.053,135.063 249,133.5C 250.481,134.471 251.315,135.804 251.5,137.5 Z"/></g>
<g><path style="opacity:1" fill="#ee0a08" d="M 251.5,137.5 C 251.232,139.099 251.566,140.432 252.5,141.5C 250.721,143.344 248.388,144.01 245.5,143.5C 245.5,142.167 245.5,140.833 245.5,139.5C 247.093,138.652 248.26,137.319 249,135.5C 249.708,136.381 250.542,137.047 251.5,137.5 Z"/></g>
<g><path style="opacity:0.957" fill="#ca241e" d="M 245.5,139.5 C 245.5,140.833 245.5,142.167 245.5,143.5C 248.388,144.01 250.721,143.344 252.5,141.5C 253.404,142.209 253.737,143.209 253.5,144.5C 249.958,144.813 246.625,144.479 243.5,143.5C 243.66,141.847 244.326,140.514 245.5,139.5 Z"/></g>
<g><path style="opacity:0.561" fill="#e37572" d="M 251.5,137.5 C 253.873,139.579 255.206,142.246 255.5,145.5C 254.167,145.5 252.833,145.5 251.5,145.5C 249.167,145.5 246.833,145.5 244.5,145.5C 242.576,145.289 242.243,144.623 243.5,143.5C 246.625,144.479 249.958,144.813 253.5,144.5C 253.737,143.209 253.404,142.209 252.5,141.5C 251.566,140.432 251.232,139.099 251.5,137.5 Z"/></g>
<g><path style="opacity:0.071" fill="#e6e9e5" d="M 244.5,145.5 C 246.833,145.5 249.167,145.5 251.5,145.5C 252.833,146.167 254.167,146.833 255.5,147.5C 250.833,147.5 246.167,147.5 241.5,147.5C 242.5,146.833 243.5,146.167 244.5,145.5 Z"/></g>
<g><path style="opacity:0.984" fill="#a2a2a2" d="M 241.5,147.5 C 246.167,147.5 250.833,147.5 255.5,147.5C 298.9,152.393 326.067,176.06 337,218.5C 339.912,235.202 338.579,251.535 333,267.5C 332.577,268.956 331.744,269.456 330.5,269C 328.121,265.744 326.121,262.244 324.5,258.5C 334.007,213.011 317.673,180.844 275.5,162C 270.362,159.882 265.029,158.715 259.5,158.5C 252.5,157.167 245.5,157.167 238.5,158.5C 236.585,158.216 234.919,158.549 233.5,159.5C 203.723,166.609 183.723,184.609 173.5,213.5C 171.529,217.48 170.362,221.813 170,226.5C 169.18,233.014 169.347,239.347 170.5,245.5C 171.4,249.728 172.4,254.061 173.5,258.5C 171.902,262.711 169.568,266.378 166.5,269.5C 150.984,223.213 163.318,186.38 203.5,159C 215.24,152.03 227.907,148.197 241.5,147.5 Z"/></g>
<g><path style="opacity:0.294" fill="#fbaba9" d="M 238.5,159.5 C 238.5,159.167 238.5,158.833 238.5,158.5C 245.5,158.5 252.5,158.5 259.5,158.5C 261.167,159.167 262.833,159.833 264.5,160.5C 256.854,159.793 249.187,159.46 241.5,159.5C 240.5,159.5 239.5,159.5 238.5,159.5 Z"/></g>
<g><path style="opacity:0.961" fill="#db5546" d="M 233.5,159.5 C 235.167,159.5 236.833,159.5 238.5,159.5C 239.5,159.5 240.5,159.5 241.5,159.5C 241.5,159.833 241.5,160.167 241.5,160.5C 238.454,161.062 235.454,161.729 232.5,162.5C 232.557,161.391 232.89,160.391 233.5,159.5 Z"/></g>
<g><path style="opacity:1" fill="#fa0302" d="M 241.5,160.5 C 246.179,160.334 250.845,160.501 255.5,161C 257.5,161.667 258.833,163 259.5,165C 262.382,165.272 265.049,166.106 267.5,167.5C 267.67,170.204 269.003,171.871 271.5,172.5C 271.076,176.002 272.41,178.335 275.5,179.5C 275.427,181.027 276.094,182.027 277.5,182.5C 277.209,187.596 279.209,191.263 283.5,193.5C 283.427,195.027 284.094,196.027 285.5,196.5C 285.502,200.165 286.835,203.165 289.5,205.5C 289.816,208.256 290.816,210.756 292.5,213C 292.167,214 291.833,215 291.5,216C 293.692,216.256 295.692,217.423 297.5,219.5C 298.11,221.434 299.11,223.101 300.5,224.5C 301.11,226.434 302.11,228.101 303.5,229.5C 304.167,229.833 304.833,230.167 305.5,230.5C 306.674,231.514 307.34,232.847 307.5,234.5C 307.5,235.167 307.5,235.833 307.5,236.5C 307.823,241.791 310.156,245.791 314.5,248.5C 314.859,250.766 314.192,252.599 312.5,254C 314,256.167 315.167,256 316,253.5C 316.432,256.072 317.932,257.406 320.5,257.5C 320.427,259.027 321.094,260.027 322.5,260.5C 323.338,260.842 323.672,261.508 323.5,262.5C 323.5,263.167 323.5,263.833 323.5,264.5C 324.136,266.795 325.469,268.461 327.5,269.5C 327.076,273.002 328.41,275.335 331.5,276.5C 331.427,278.027 332.094,279.027 333.5,279.5C 334.674,280.514 335.34,281.847 335.5,283.5C 335.427,285.027 336.094,286.027 337.5,286.5C 337.166,289.491 338.166,291.824 340.5,293.5C 329.854,294.832 318.854,295.499 307.5,295.5C 296.5,295.333 285.5,295.167 274.5,295C 275.71,293.961 276.71,292.794 277.5,291.5C 280.833,287.833 284.167,284.167 287.5,280.5C 289.411,279.925 291.078,278.925 292.5,277.5C 294.017,277.489 295.184,276.823 296,275.5C 296.096,272.549 296.929,269.882 298.5,267.5C 297.135,266.059 295.635,264.726 294,263.5C 293.667,263.833 293.333,264.167 293,264.5C 292.696,262.559 291.863,260.893 290.5,259.5C 290.709,258.914 291.043,258.414 291.5,258C 287.042,257.415 285.709,255.082 287.5,251C 287.095,250.055 286.428,249.388 285.5,249C 286.641,248.259 286.641,247.425 285.5,246.5C 284.007,247.166 282.34,247.166 280.5,246.5C 279.559,244.95 278.893,243.284 278.5,241.5C 276.854,237.548 274.521,234.215 271.5,231.5C 269.855,228.211 268.189,224.878 266.5,221.5C 265.735,220.388 264.735,219.721 263.5,219.5C 263.5,219.167 263.5,218.833 263.5,218.5C 262.579,214.701 260.912,211.368 258.5,208.5C 258.538,205.819 257.871,203.319 256.5,201C 256.667,200.5 256.833,200 257,199.5C 257.667,200.833 258.333,200.833 259,199.5C 259.483,198.552 259.649,197.552 259.5,196.5C 257.516,196.383 255.85,197.05 254.5,198.5C 253.007,195.507 250.674,193.507 247.5,192.5C 246.719,193.729 246.219,195.062 246,196.5C 245.549,194.071 244.715,193.904 243.5,196C 244.833,197.84 244.666,198.34 243,197.5C 240.25,200.609 238.75,204.276 238.5,208.5C 228.5,209.833 218.5,209.833 208.5,208.5C 209.531,207.3 210.365,205.966 211,204.5C 211.333,205.5 211.667,206.5 212,207.5C 213.801,205.862 213.968,204.028 212.5,202C 214.013,200.121 214.679,197.954 214.5,195.5C 215.434,194.432 215.768,193.099 215.5,191.5C 217.408,190.514 218.408,188.848 218.5,186.5C 220.931,184.954 222.264,182.621 222.5,179.5C 224.931,177.954 226.264,175.621 226.5,172.5C 226.328,171.508 226.662,170.842 227.5,170.5C 228.906,170.027 229.573,169.027 229.5,167.5C 229.328,166.508 229.662,165.842 230.5,165.5C 231.906,165.027 232.573,164.027 232.5,162.5C 235.454,161.729 238.454,161.062 241.5,160.5 Z"/></g>
<g><path style="opacity:1" fill="#e61311" d="M 241.5,160.5 C 241.5,160.167 241.5,159.833 241.5,159.5C 249.187,159.46 256.854,159.793 264.5,160.5C 265.338,160.842 265.672,161.508 265.5,162.5C 265.427,164.027 266.094,165.027 267.5,165.5C 267.5,166.167 267.5,166.833 267.5,167.5C 265.049,166.106 262.382,165.272 259.5,165C 258.833,163 257.5,161.667 255.5,161C 250.845,160.501 246.179,160.334 241.5,160.5 Z"/></g>
<g><path style="opacity:0.227" fill="#f8a7a0" d="M 232.5,162.5 C 232.573,164.027 231.906,165.027 230.5,165.5C 230.427,163.973 231.094,162.973 232.5,162.5 Z"/></g>
<g><path style="opacity:0.286" fill="#f1918c" d="M 265.5,162.5 C 266.906,162.973 267.573,163.973 267.5,165.5C 266.094,165.027 265.427,164.027 265.5,162.5 Z"/></g>
<g><path style="opacity:0.894" fill="#e36054" d="M 267.5,165.5 C 269.588,167.336 270.921,169.669 271.5,172.5C 269.003,171.871 267.67,170.204 267.5,167.5C 267.5,166.833 267.5,166.167 267.5,165.5 Z"/></g>
<g><path style="opacity:0.153" fill="#f8b3ab" d="M 229.5,167.5 C 229.573,169.027 228.906,170.027 227.5,170.5C 227.427,168.973 228.094,167.973 229.5,167.5 Z"/></g>
<g><path style="opacity:0.922" fill="#e55d51" d="M 271.5,172.5 C 273.588,174.336 274.921,176.669 275.5,179.5C 272.41,178.335 271.076,176.002 271.5,172.5 Z"/></g>
<g><path style="opacity:0.792" fill="#e77f6d" d="M 226.5,172.5 C 226.264,175.621 224.931,177.954 222.5,179.5C 223.079,176.669 224.412,174.336 226.5,172.5 Z"/></g>
<g><path style="opacity:0.184" fill="#faa9ad" d="M 275.5,179.5 C 276.906,179.973 277.573,180.973 277.5,182.5C 276.094,182.027 275.427,181.027 275.5,179.5 Z"/></g>
<g><path style="opacity:0.827" fill="#eb796d" d="M 222.5,179.5 C 222.264,182.621 220.931,184.954 218.5,186.5C 219.079,183.669 220.412,181.336 222.5,179.5 Z"/></g>
<g><path style="opacity:0.208" fill="#f7a4a1" d="M 279.5,186.5 C 280.906,186.973 281.573,187.973 281.5,189.5C 280.094,189.027 279.427,188.027 279.5,186.5 Z"/></g>
<g><path style="opacity:1" fill="#e34233" d="M 277.5,182.5 C 278.674,183.514 279.34,184.847 279.5,186.5C 279.427,188.027 280.094,189.027 281.5,189.5C 282.674,190.514 283.34,191.847 283.5,193.5C 279.209,191.263 277.209,187.596 277.5,182.5 Z"/></g>
<g><path style="opacity:0.878" fill="#ec7d75" d="M 218.5,186.5 C 218.408,188.848 217.408,190.514 215.5,191.5C 215.75,189.326 216.75,187.659 218.5,186.5 Z"/></g>
<g><path style="opacity:0.914" fill="#e47164" d="M 215.5,191.5 C 215.768,193.099 215.434,194.432 214.5,195.5C 213.9,196.9 212.9,197.9 211.5,198.5C 212.079,195.669 213.412,193.336 215.5,191.5 Z"/></g>
<g><path style="opacity:0.224" fill="#f6a09a" d="M 283.5,193.5 C 284.906,193.973 285.573,194.973 285.5,196.5C 284.094,196.027 283.427,195.027 283.5,193.5 Z"/></g>
<g><path style="opacity:0.188" fill="#fcbaba" d="M 211.5,198.5 C 211.573,200.027 210.906,201.027 209.5,201.5C 209.427,199.973 210.094,198.973 211.5,198.5 Z"/></g>
<g><path style="opacity:0.878" fill="#e35647" d="M 285.5,196.5 C 287.588,198.336 288.921,200.669 289.5,203.5C 289.5,204.167 289.5,204.833 289.5,205.5C 286.835,203.165 285.502,200.165 285.5,196.5 Z"/></g>
<g><path style="opacity:0.169" fill="#fdb7ba" d="M 289.5,203.5 C 290.906,203.973 291.573,204.973 291.5,206.5C 290.833,206.167 290.167,205.833 289.5,205.5C 289.5,204.833 289.5,204.167 289.5,203.5 Z"/></g>
<g><path style="opacity:1" fill="#e61e13" d="M 258.5,208.5 C 258.167,208.5 257.833,208.5 257.5,208.5C 257.13,205.733 255.796,203.733 253.5,202.5C 253.771,200.62 253.104,199.287 251.5,198.5C 251.461,197.417 251.127,196.417 250.5,195.5C 249.743,194.227 249.077,194.227 248.5,195.5C 248.672,196.492 248.338,197.158 247.5,197.5C 246.094,197.973 245.427,198.973 245.5,200.5C 244.094,200.973 243.427,201.973 243.5,203.5C 241.824,204.183 241.157,205.517 241.5,207.5C 240.094,207.973 239.427,208.973 239.5,210.5C 228.162,210.667 216.828,210.5 205.5,210C 207.107,208.951 207.773,207.451 207.5,205.5C 207.66,203.847 208.326,202.514 209.5,201.5C 210.906,201.027 211.573,200.027 211.5,198.5C 212.9,197.9 213.9,196.9 214.5,195.5C 214.679,197.954 214.013,200.121 212.5,202C 213.968,204.028 213.801,205.862 212,207.5C 211.667,206.5 211.333,205.5 211,204.5C 210.365,205.966 209.531,207.3 208.5,208.5C 218.5,209.833 228.5,209.833 238.5,208.5C 238.75,204.276 240.25,200.609 243,197.5C 244.666,198.34 244.833,197.84 243.5,196C 244.715,193.904 245.549,194.071 246,196.5C 246.219,195.062 246.719,193.729 247.5,192.5C 250.674,193.507 253.007,195.507 254.5,198.5C 255.85,197.05 257.516,196.383 259.5,196.5C 259.649,197.552 259.483,198.552 259,199.5C 258.333,200.833 257.667,200.833 257,199.5C 256.833,200 256.667,200.5 256.5,201C 257.871,203.319 258.538,205.819 258.5,208.5 Z"/></g>
<g><path style="opacity:0.737" fill="#e67062" d="M 243.5,203.5 C 243.34,205.153 242.674,206.486 241.5,207.5C 241.157,205.517 241.824,204.183 243.5,203.5 Z"/></g>
<g><path style="opacity:0.702" fill="#ed8c7e" d="M 253.5,202.5 C 255.796,203.733 257.13,205.733 257.5,208.5C 255.684,206.882 254.351,204.882 253.5,202.5 Z"/></g>
<g><path style="opacity:0.157" fill="#f59f9a" d="M 245.5,200.5 C 245.573,202.027 244.906,203.027 243.5,203.5C 243.427,201.973 244.094,200.973 245.5,200.5 Z"/></g>
<g><path style="opacity:0.176" fill="#f6aba5" d="M 251.5,198.5 C 253.104,199.287 253.771,200.62 253.5,202.5C 252.326,201.486 251.66,200.153 251.5,198.5 Z"/></g>
<g><path style="opacity:0.094" fill="#fdbdb6" d="M 247.5,197.5 C 247.573,199.027 246.906,200.027 245.5,200.5C 245.427,198.973 246.094,197.973 247.5,197.5 Z"/></g>
<g><path style="opacity:0.604" fill="#fc9490" d="M 248.5,195.5 C 249.077,194.227 249.743,194.227 250.5,195.5C 251.127,196.417 251.461,197.417 251.5,198.5C 250.272,197.694 249.272,196.694 248.5,195.5 Z"/></g>
<g><path style="opacity:0.161" fill="#fcb2b8" d="M 241.5,207.5 C 241.34,209.153 240.674,210.486 239.5,211.5C 239.5,211.167 239.5,210.833 239.5,210.5C 239.427,208.973 240.094,207.973 241.5,207.5 Z"/></g>
<g><path style="opacity:0.949" fill="#ee7c6e" d="M 257.5,208.5 C 257.833,208.5 258.167,208.5 258.5,208.5C 260.912,211.368 262.579,214.701 263.5,218.5C 260.498,215.839 258.498,212.505 257.5,208.5 Z"/></g>
<g><path style="opacity:0.733" fill="#ef7d73" d="M 207.5,205.5 C 207.773,207.451 207.107,208.951 205.5,210C 216.828,210.5 228.162,210.667 239.5,210.5C 239.5,210.833 239.5,211.167 239.5,211.5C 228.243,212.643 216.909,212.81 205.5,212C 204.312,209.325 204.979,207.159 207.5,205.5 Z"/></g>
<g><path style="opacity:0.216" fill="#fbb3b5" d="M 293.5,210.5 C 294.906,210.973 295.573,211.973 295.5,213.5C 294.094,213.027 293.427,212.027 293.5,210.5 Z"/></g>
<g><path style="opacity:1" fill="#ea3b2c" d="M 289.5,205.5 C 290.167,205.833 290.833,206.167 291.5,206.5C 292.674,207.514 293.34,208.847 293.5,210.5C 293.427,212.027 294.094,213.027 295.5,213.5C 296.674,214.514 297.34,215.847 297.5,217.5C 297.5,218.167 297.5,218.833 297.5,219.5C 295.692,217.423 293.692,216.256 291.5,216C 291.833,215 292.167,214 292.5,213C 290.816,210.756 289.816,208.256 289.5,205.5 Z"/></g>
<g><path style="opacity:0.247" fill="#f7b1b3" d="M 297.5,217.5 C 298.906,217.973 299.573,218.973 299.5,220.5C 298.833,220.167 298.167,219.833 297.5,219.5C 297.5,218.833 297.5,218.167 297.5,217.5 Z"/></g>
<g><path style="opacity:0.889" fill="#5b5b5c" d="M 256.5,223.5 C 255.711,223.217 255.044,222.717 254.5,222C 235.836,221.5 217.17,221.333 198.5,221.5C 198.611,220.883 198.944,220.383 199.5,220C 217.833,219.333 236.167,219.333 254.5,220C 255.823,220.816 256.489,221.983 256.5,223.5 Z"/></g>
<g><path style="opacity:1" fill="#050505" d="M 198.5,221.5 C 217.17,221.333 235.836,221.5 254.5,222C 255.044,222.717 255.711,223.217 256.5,223.5C 257.338,223.842 257.672,224.508 257.5,225.5C 257.574,228.659 258.907,230.992 261.5,232.5C 263.25,233.659 264.25,235.326 264.5,237.5C 264.427,239.027 265.094,240.027 266.5,240.5C 267.338,240.842 267.672,241.508 267.5,242.5C 267.427,244.027 268.094,245.027 269.5,245.5C 270.338,245.842 270.672,246.508 270.5,247.5C 260.554,249.475 250.221,250.142 239.5,249.5C 231.097,248.866 223.097,249.533 215.5,251.5C 214.083,254.669 212.417,257.669 210.5,260.5C 208.75,261.659 207.75,263.326 207.5,265.5C 206.431,267.969 205.098,270.302 203.5,272.5C 205.856,275.186 208.189,277.853 210.5,280.5C 210.833,281.5 211.5,282.167 212.5,282.5C 213.262,284.262 214.596,285.262 216.5,285.5C 220.167,288.5 223.5,291.833 226.5,295.5C 202.833,296.833 179.167,296.833 155.5,295.5C 156.906,295.027 157.573,294.027 157.5,292.5C 157.66,290.847 158.326,289.514 159.5,288.5C 160.906,288.027 161.573,287.027 161.5,285.5C 161.328,284.508 161.662,283.842 162.5,283.5C 165.515,282.63 166.515,280.964 165.5,278.5C 166.584,275.996 167.917,273.663 169.5,271.5C 170.906,271.027 171.573,270.027 171.5,268.5C 171.66,266.847 172.326,265.514 173.5,264.5C 174.906,264.027 175.573,263.027 175.5,261.5C 176.774,258.24 178.44,255.24 180.5,252.5C 181.906,252.027 182.573,251.027 182.5,249.5C 182.66,247.847 183.326,246.514 184.5,245.5C 185.906,245.027 186.573,244.027 186.5,242.5C 186.66,240.847 187.326,239.514 188.5,238.5C 189.906,238.027 190.573,237.027 190.5,235.5C 190.66,233.847 191.326,232.514 192.5,231.5C 193.906,231.027 194.573,230.027 194.5,228.5C 195.079,225.669 196.412,223.336 198.5,221.5 Z"/></g>
<g><path style="opacity:0.969" fill="#ec7e74" d="M 263.5,219.5 C 264.735,219.721 265.735,220.388 266.5,221.5C 268.189,224.878 269.855,228.211 271.5,231.5C 271.5,231.833 271.5,232.167 271.5,232.5C 268.597,228.37 265.93,224.037 263.5,219.5 Z"/></g>
<g><path style="opacity:0.886" fill="#d94942" d="M 297.5,219.5 C 298.167,219.833 298.833,220.167 299.5,220.5C 300.338,220.842 300.672,221.508 300.5,222.5C 300.5,223.167 300.5,223.833 300.5,224.5C 299.11,223.101 298.11,221.434 297.5,219.5 Z"/></g>
<g><path style="opacity:0.176" fill="#ffc0bc" d="M 300.5,222.5 C 301.906,222.973 302.573,223.973 302.5,225.5C 301.833,225.167 301.167,224.833 300.5,224.5C 300.5,223.833 300.5,223.167 300.5,222.5 Z"/></g>
<g><path style="opacity:0.843" fill="#d95246" d="M 300.5,224.5 C 301.167,224.833 301.833,225.167 302.5,225.5C 303.338,225.842 303.672,226.508 303.5,227.5C 303.5,228.167 303.5,228.833 303.5,229.5C 302.11,228.101 301.11,226.434 300.5,224.5 Z"/></g>
<g><path style="opacity:0.169" fill="#fdc8c4" d="M 303.5,227.5 C 304.906,227.973 305.573,228.973 305.5,230.5C 304.833,230.167 304.167,229.833 303.5,229.5C 303.5,228.833 303.5,228.167 303.5,227.5 Z"/></g>
<g><path style="opacity:0.349" fill="#999999" d="M 194.5,228.5 C 194.573,230.027 193.906,231.027 192.5,231.5C 192.427,229.973 193.094,228.973 194.5,228.5 Z"/></g>
<g><path style="opacity:0.961" fill="#494c4c" d="M 257.5,225.5 C 259.588,227.336 260.921,229.669 261.5,232.5C 258.907,230.992 257.574,228.659 257.5,225.5 Z"/></g>
<g><path style="opacity:0.199" fill="#d5d5d5" d="M 173.5,213.5 C 171.026,224.013 170.026,234.679 170.5,245.5C 169.347,239.347 169.18,233.014 170,226.5C 170.362,221.813 171.529,217.48 173.5,213.5 Z"/></g>
<g><path style="opacity:0.18" fill="#ffc1bd" d="M 307.5,234.5 C 308.906,234.973 309.573,235.973 309.5,237.5C 308.833,237.167 308.167,236.833 307.5,236.5C 307.5,235.833 307.5,235.167 307.5,234.5 Z"/></g>
<g><path style="opacity:0.396" fill="#909090" d="M 190.5,235.5 C 190.573,237.027 189.906,238.027 188.5,238.5C 188.427,236.973 189.094,235.973 190.5,235.5 Z"/></g>
<g><path style="opacity:0.933" fill="#e45d4d" d="M 271.5,231.5 C 274.521,234.215 276.854,237.548 278.5,241.5C 277.833,241.5 277.167,241.5 276.5,241.5C 274.44,238.76 272.774,235.76 271.5,232.5C 271.5,232.167 271.5,231.833 271.5,231.5 Z"/></g>
<g><path style="opacity:0.435" fill="#8a8a88" d="M 264.5,237.5 C 265.906,237.973 266.573,238.973 266.5,240.5C 265.094,240.027 264.427,239.027 264.5,237.5 Z"/></g>
<g><path style="opacity:0.827" fill="#f48882" d="M 276.5,241.5 C 277.167,241.5 277.833,241.5 278.5,241.5C 278.893,243.284 279.559,244.95 280.5,246.5C 280.5,246.833 280.5,247.167 280.5,247.5C 278.684,245.882 277.351,243.882 276.5,241.5 Z"/></g>
<g><path style="opacity:1" fill="#e84c3c" d="M 307.5,236.5 C 308.167,236.833 308.833,237.167 309.5,237.5C 310.674,238.514 311.34,239.847 311.5,241.5C 311.427,243.027 312.094,244.027 313.5,244.5C 314.674,245.514 315.34,246.847 315.5,248.5C 315.167,248.5 314.833,248.5 314.5,248.5C 310.156,245.791 307.823,241.791 307.5,236.5 Z"/></g>
<g><path style="opacity:0.196" fill="#fdbeb9" d="M 311.5,241.5 C 312.906,241.973 313.573,242.973 313.5,244.5C 312.094,244.027 311.427,243.027 311.5,241.5 Z"/></g>
<g><path style="opacity:0.42" fill="#878787" d="M 186.5,242.5 C 186.573,244.027 185.906,245.027 184.5,245.5C 184.427,243.973 185.094,242.973 186.5,242.5 Z"/></g>
<g><path style="opacity:0.424" fill="#8f8f8f" d="M 267.5,242.5 C 268.906,242.973 269.573,243.973 269.5,245.5C 268.094,245.027 267.427,244.027 267.5,242.5 Z"/></g>
<g><path style="opacity:0.137" fill="#fdbcb9" d="M 280.5,247.5 C 281.674,248.514 282.34,249.847 282.5,251.5C 280.896,250.713 280.229,249.38 280.5,247.5 Z"/></g>
<g><path style="opacity:0.342" fill="#9e9e9e" d="M 239.5,249.5 C 239.5,249.833 239.5,250.167 239.5,250.5C 231.414,250.199 223.414,250.533 215.5,251.5C 223.097,249.533 231.097,248.866 239.5,249.5 Z"/></g>
<g><path style="opacity:0.667" fill="#767676" d="M 270.5,247.5 C 271.478,247.811 272.145,248.478 272.5,249.5C 269.973,250.214 267.473,250.88 265,251.5C 256.585,250.517 248.085,250.183 239.5,250.5C 239.5,250.167 239.5,249.833 239.5,249.5C 250.221,250.142 260.554,249.475 270.5,247.5 Z"/></g>
<g><path style="opacity:1" fill="#eb271a" d="M 292.5,277.5 C 293.908,276.089 294.908,274.423 295.5,272.5C 295.253,271.287 294.586,270.62 293.5,270.5C 292.662,270.158 292.328,269.492 292.5,268.5C 292.25,266.326 291.25,264.659 289.5,263.5C 288,259.827 286,256.494 283.5,253.5C 282.662,253.158 282.328,252.492 282.5,251.5C 282.34,249.847 281.674,248.514 280.5,247.5C 280.5,247.167 280.5,246.833 280.5,246.5C 282.34,247.166 284.007,247.166 285.5,246.5C 286.641,247.425 286.641,248.259 285.5,249C 286.428,249.388 287.095,250.055 287.5,251C 285.709,255.082 287.042,257.415 291.5,258C 291.043,258.414 290.709,258.914 290.5,259.5C 291.863,260.893 292.696,262.559 293,264.5C 293.333,264.167 293.667,263.833 294,263.5C 295.635,264.726 297.135,266.059 298.5,267.5C 296.929,269.882 296.096,272.549 296,275.5C 295.184,276.823 294.017,277.489 292.5,277.5 Z"/></g>
<g><path style="opacity:0.451" fill="#7d7d7d" d="M 182.5,249.5 C 182.573,251.027 181.906,252.027 180.5,252.5C 180.427,250.973 181.094,249.973 182.5,249.5 Z"/></g>
<g><path style="opacity:0.231" fill="#fca9a8" d="M 316.5,250.5 C 317.906,250.973 318.573,251.973 318.5,253.5C 317.094,253.027 316.427,252.027 316.5,250.5 Z"/></g>
<g><path style="opacity:1" fill="#e92d1d" d="M 314.5,248.5 C 314.833,248.5 315.167,248.5 315.5,248.5C 316.338,248.842 316.672,249.508 316.5,250.5C 316.427,252.027 317.094,253.027 318.5,253.5C 319.674,254.514 320.34,255.847 320.5,257.5C 317.932,257.406 316.432,256.072 316,253.5C 315.167,256 314,256.167 312.5,254C 314.192,252.599 314.859,250.766 314.5,248.5 Z"/></g>
<g><path style="opacity:0.004" fill="#fed5d3" d="M 283.5,253.5 C 286,256.494 288,259.827 289.5,263.5C 286.498,260.839 284.498,257.505 283.5,253.5 Z"/></g>
<g><path style="opacity:0.239" fill="#fba5a4" d="M 320.5,257.5 C 321.906,257.973 322.573,258.973 322.5,260.5C 321.094,260.027 320.427,259.027 320.5,257.5 Z"/></g>
<g><path style="opacity:0.416" fill="#8e8e8e" d="M 175.5,261.5 C 175.573,263.027 174.906,264.027 173.5,264.5C 173.427,262.973 174.094,261.973 175.5,261.5 Z"/></g>
<g><path style="opacity:0.008" fill="#dfdfdf" d="M 210.5,260.5 C 210.25,262.674 209.25,264.341 207.5,265.5C 207.75,263.326 208.75,261.659 210.5,260.5 Z"/></g>
<g><path style="opacity:0.176" fill="#fab0b5" d="M 323.5,262.5 C 324.906,262.973 325.573,263.973 325.5,265.5C 324.833,265.167 324.167,264.833 323.5,264.5C 323.5,263.833 323.5,263.167 323.5,262.5 Z"/></g>
<g><path style="opacity:0.102" fill="#fcc8c6" d="M 289.5,263.5 C 291.25,264.659 292.25,266.326 292.5,268.5C 290.75,267.341 289.75,265.674 289.5,263.5 Z"/></g>
<g><path style="opacity:1" fill="#e2584d" d="M 323.5,264.5 C 324.167,264.833 324.833,265.167 325.5,265.5C 326.674,266.514 327.34,267.847 327.5,269.5C 325.469,268.461 324.136,266.795 323.5,264.5 Z"/></g>
<g><path style="opacity:0.471" fill="#848484" d="M 171.5,268.5 C 171.573,270.027 170.906,271.027 169.5,271.5C 169.427,269.973 170.094,268.973 171.5,268.5 Z"/></g>
<g><path style="opacity:0.965" fill="#e45e50" d="M 327.5,269.5 C 329.588,271.336 330.921,273.669 331.5,276.5C 328.41,275.335 327.076,273.002 327.5,269.5 Z"/></g>
<g><path style="opacity:0.49" fill="#ed8880" d="M 293.5,270.5 C 294.586,270.62 295.253,271.287 295.5,272.5C 294.908,274.423 293.908,276.089 292.5,277.5C 291.078,278.925 289.411,279.925 287.5,280.5C 289.461,278.037 291.628,275.703 294,273.5C 294.47,272.423 294.303,271.423 293.5,270.5 Z"/></g>
<g><path style="opacity:0.243" fill="#f9a2a5" d="M 331.5,276.5 C 332.906,276.973 333.573,277.973 333.5,279.5C 332.094,279.027 331.427,278.027 331.5,276.5 Z"/></g>
<g><path style="opacity:0.978" fill="#4d4d4d" d="M 165.5,278.5 C 166.515,280.964 165.515,282.63 162.5,283.5C 163.11,281.566 164.11,279.899 165.5,278.5 Z"/></g>
<g><path style="opacity:0.008" fill="#c5c5c5" d="M 210.5,280.5 C 211.833,280.5 212.5,281.167 212.5,282.5C 211.5,282.167 210.833,281.5 210.5,280.5 Z"/></g>
<g><path style="opacity:0.012" fill="#b7b7b7" d="M 212.5,282.5 C 214.404,282.738 215.738,283.738 216.5,285.5C 214.596,285.262 213.262,284.262 212.5,282.5 Z"/></g>
<g><path style="opacity:0.282" fill="#f9a0a0" d="M 335.5,283.5 C 336.906,283.973 337.573,284.973 337.5,286.5C 336.094,286.027 335.427,285.027 335.5,283.5 Z"/></g>
<g><path style="opacity:0.337" fill="#a3a3a3" d="M 161.5,285.5 C 161.573,287.027 160.906,288.027 159.5,288.5C 159.427,286.973 160.094,285.973 161.5,285.5 Z"/></g>
<g><path style="opacity:0.627" fill="#f09693" d="M 287.5,280.5 C 284.167,284.167 280.833,287.833 277.5,291.5C 276.833,291.5 276.167,291.5 275.5,291.5C 278.895,287.102 282.895,283.436 287.5,280.5 Z"/></g>
<g><path style="opacity:0.949" fill="#e86a5d" d="M 337.5,286.5 C 339.588,288.336 340.921,290.669 341.5,293.5C 341.167,293.5 340.833,293.5 340.5,293.5C 338.166,291.824 337.166,289.491 337.5,286.5 Z"/></g>
<g><path style="opacity:0.396" fill="#9a9a9a" d="M 157.5,292.5 C 157.573,294.027 156.906,295.027 155.5,295.5C 155.427,293.973 156.094,292.973 157.5,292.5 Z"/></g>
<g><path style="opacity:0.948" fill="#d2120f" d="M 275.5,291.5 C 276.167,291.5 276.833,291.5 277.5,291.5C 276.71,292.794 275.71,293.961 274.5,295C 285.5,295.167 296.5,295.333 307.5,295.5C 318.854,295.499 329.854,294.832 340.5,293.5C 340.833,293.5 341.167,293.5 341.5,293.5C 341.5,294.5 341.5,295.5 341.5,296.5C 331.5,296.5 321.5,296.5 311.5,296.5C 298.163,296.667 284.829,296.5 271.5,296C 273.041,294.629 274.375,293.129 275.5,291.5 Z"/></g>
<g><path style="opacity:0.312" fill="#a2a2a2" d="M 155.5,295.5 C 179.167,296.833 202.833,296.833 226.5,295.5C 227.043,295.56 227.376,295.893 227.5,296.5C 203.167,297.833 178.833,297.833 154.5,296.5C 154.624,295.893 154.957,295.56 155.5,295.5 Z"/></g>
<g><path style="opacity:0.421" fill="#ffb7b5" d="M 275.5,291.5 C 274.375,293.129 273.041,294.629 271.5,296C 284.829,296.5 298.163,296.667 311.5,296.5C 320.986,297.494 330.652,297.827 340.5,297.5C 317.269,298.731 293.936,298.731 270.5,297.5C 270.712,294.288 272.379,292.288 275.5,291.5 Z"/></g>
<g><path style="opacity:0.52" fill="#fa817e" d="M 341.5,293.5 C 343.898,294.882 344.065,296.549 342,298.5C 341.617,297.944 341.117,297.611 340.5,297.5C 330.652,297.827 320.986,297.494 311.5,296.5C 321.5,296.5 331.5,296.5 341.5,296.5C 341.5,295.5 341.5,294.5 341.5,293.5 Z"/></g>
<g><path style="opacity:0.989" fill="#a2a2a2" d="M 260.5,324.5 C 250.815,324.578 241.148,324.245 231.5,323.5C 214.272,320.554 199.606,312.888 187.5,300.5C 196.122,297.998 203.789,299.498 210.5,305C 239.824,319.099 268.157,317.432 295.5,300C 300.533,299.171 305.533,299.338 310.5,300.5C 296.75,314.373 280.084,322.373 260.5,324.5 Z"/></g>
<g><path style="opacity:0.311" fill="#cecece" d="M 231.5,323.5 C 241.148,324.245 250.815,324.578 260.5,324.5C 256.849,325.165 253.015,325.499 249,325.5C 242.926,325.659 237.092,324.993 231.5,323.5 Z"/></g>
<g><path style="opacity:0.175" fill="#d8d8d8" d="M 265.5,364.5 C 265.5,357.167 265.5,349.833 265.5,342.5C 263.167,342.5 260.833,342.5 258.5,342.5C 258.827,347.214 258.493,351.88 257.5,356.5C 256.702,356.043 256.369,355.376 256.5,354.5C 257.325,350.353 257.825,346.019 258,341.5C 260.933,340.534 263.599,340.534 266,341.5C 266.822,349.345 266.656,357.011 265.5,364.5 Z"/></g>
<g><path style="opacity:0.824" fill="#e75a56" d="M 279.5,341.5 C 285.69,341.177 291.69,341.51 297.5,342.5C 290.11,342.236 282.777,342.57 275.5,343.5C 276.287,341.896 277.62,341.229 279.5,341.5 Z"/></g>
<g><path style="opacity:0.588" fill="#fa9492" d="M 317.5,342.5 C 313.5,342.5 309.5,342.5 305.5,342.5C 305.167,342.5 304.833,342.5 304.5,342.5C 304.866,341.305 305.699,340.639 307,340.5C 309.594,340.761 312.26,340.761 315,340.5C 315.995,341.066 316.828,341.733 317.5,342.5 Z"/></g>
<g><path style="opacity:0.999" fill="#1d1d1d" d="M 163.5,352.5 C 163.427,354.027 164.094,355.027 165.5,355.5C 167.341,357.849 168.674,360.515 169.5,363.5C 166.713,364.477 163.713,364.81 160.5,364.5C 159.89,363.609 159.557,362.609 159.5,361.5C 156.203,361.11 153.203,360.11 150.5,358.5C 150.167,355.833 149.833,355.833 149.5,358.5C 148.662,358.842 148.328,359.508 148.5,360.5C 147.5,361.833 146.5,363.167 145.5,364.5C 142.287,364.81 139.287,364.477 136.5,363.5C 136.5,363.167 136.5,362.833 136.5,362.5C 137.167,362.5 137.5,362.167 137.5,361.5C 137.5,361.167 137.5,360.833 137.5,360.5C 138.906,360.027 139.573,359.027 139.5,357.5C 140.338,357.158 140.672,356.492 140.5,355.5C 141.906,355.027 142.573,354.027 142.5,352.5C 142.5,352.167 142.5,351.833 142.5,351.5C 143.906,351.027 144.573,350.027 144.5,348.5C 145.785,340.941 150.118,338.441 157.5,341C 160.163,344.493 162.163,348.327 163.5,352.5 Z M 152.5,352.5 C 152.833,353.833 153.167,353.833 153.5,352.5C 154.5,352.833 155.167,353.5 155.5,354.5C 154.167,354.5 152.833,354.5 151.5,354.5C 151.328,353.508 151.662,352.842 152.5,352.5 Z"/></g>
<g><path style="opacity:0.998" fill="#030303" d="M 217.5,358.5 C 217.5,360.5 217.5,362.5 217.5,364.5C 210.167,364.5 202.833,364.5 195.5,364.5C 195.5,356.833 195.5,349.167 195.5,341.5C 197.833,341.5 200.167,341.5 202.5,341.5C 202.5,347.167 202.5,352.833 202.5,358.5C 207.5,358.5 212.5,358.5 217.5,358.5 Z"/></g>
<g><path style="opacity:0.976" fill="#9a9a9a" d="M 232.5,364.5 C 230.167,365.833 227.833,365.833 225.5,364.5C 225.5,357.167 225.5,349.833 225.5,342.5C 227.833,342.5 230.167,342.5 232.5,342.5C 232.5,349.833 232.5,357.167 232.5,364.5 Z"/></g>
<g><path style="opacity:0.97" fill="#9d9d9d" d="M 256.5,354.5 C 256.369,355.376 256.702,356.043 257.5,356.5C 258.493,351.88 258.827,347.214 258.5,342.5C 260.833,342.5 263.167,342.5 265.5,342.5C 265.5,349.833 265.5,357.167 265.5,364.5C 261.631,365.796 257.631,365.796 253.5,364.5C 250.071,359.981 246.404,355.648 242.5,351.5C 242.108,355.553 241.608,360.22 241,365.5C 238.83,365.612 236.664,365.278 234.5,364.5C 234.5,356.833 234.5,349.167 234.5,341.5C 237.228,341.112 240.062,340.778 243,340.5C 244.067,341.191 245.234,341.691 246.5,342C 250.047,346.041 253.38,350.208 256.5,354.5 Z"/></g>
<g><path style="opacity:0.148" fill="#d4d4d4" d="M 234.5,341.5 C 234.5,349.167 234.5,356.833 234.5,364.5C 233.833,364.5 233.167,364.5 232.5,364.5C 232.5,357.167 232.5,349.833 232.5,342.5C 230.167,342.5 227.833,342.5 225.5,342.5C 225.5,349.833 225.5,357.167 225.5,364.5C 224.344,357.011 224.178,349.345 225,341.5C 227.744,341.343 230.911,341.343 234.5,341.5 Z"/></g>
<g><path style="opacity:1" fill="#f10e0a" d="M 297.5,342.5 C 299.933,342.273 301.599,343.273 302.5,345.5C 302.553,351.196 302.22,356.862 301.5,362.5C 300.209,362.263 299.209,362.596 298.5,363.5C 291.109,363.799 283.776,363.465 276.5,362.5C 275.505,356.872 275.171,351.206 275.5,345.5C 275.5,344.833 275.5,344.167 275.5,343.5C 282.777,342.57 290.11,342.236 297.5,342.5 Z M 282.5,348.5 C 286.292,349.49 290.292,349.49 294.5,348.5C 295.403,351.391 295.736,354.391 295.5,357.5C 291.167,357.5 286.833,357.5 282.5,357.5C 282.5,354.5 282.5,351.5 282.5,348.5 Z"/></g>
<g><path style="opacity:0.686" fill="#e88886" d="M 346.5,348.5 C 346.167,348.5 345.833,348.5 345.5,348.5C 345.5,348.167 345.5,347.833 345.5,347.5C 350.833,347.5 356.167,347.5 361.5,347.5C 361.5,345.833 361.5,344.167 361.5,342.5C 353.5,342.5 345.5,342.5 337.5,342.5C 337.5,342.167 337.5,341.833 337.5,341.5C 344.737,341.798 351.904,341.465 359,340.5C 363.186,341.871 364.353,344.538 362.5,348.5C 357.167,348.5 351.833,348.5 346.5,348.5 Z"/></g>
<g><path style="opacity:0.61" fill="#e58684" d="M 281.5,348.5 C 286.167,347.167 290.833,347.167 295.5,348.5C 295.167,348.5 294.833,348.5 294.5,348.5C 290.292,349.49 286.292,349.49 282.5,348.5C 282.167,348.5 281.833,348.5 281.5,348.5 Z"/></g>
<g><path style="opacity:1" fill="#db231a" d="M 305.5,342.5 C 309.5,342.5 313.5,342.5 317.5,342.5C 317.5,343.167 317.5,343.833 317.5,344.5C 313.936,343.577 310.269,343.244 306.5,343.5C 306.5,350.167 306.5,356.833 306.5,363.5C 307.833,363.5 309.167,363.5 310.5,363.5C 310.334,358.821 310.501,354.155 311,349.5C 312.356,348.62 313.856,348.286 315.5,348.5C 315.281,349.675 315.614,350.675 316.5,351.5C 318.261,350.965 319.594,349.965 320.5,348.5C 321.833,349.5 323.167,350.5 324.5,351.5C 324.5,352.167 324.5,352.833 324.5,353.5C 323.542,353.047 322.708,352.381 322,351.5C 320.938,353.208 319.771,353.874 318.5,353.5C 319.5,355.833 321.167,357.5 323.5,358.5C 324.246,359.736 324.579,361.07 324.5,362.5C 327.833,362.5 331.167,362.5 334.5,362.5C 334.5,356.167 334.5,349.833 334.5,343.5C 333.167,343.5 331.833,343.5 330.5,343.5C 330.817,347.702 330.483,351.702 329.5,355.5C 329.5,351.167 329.5,346.833 329.5,342.5C 331.833,342.5 334.167,342.5 336.5,342.5C 336.5,349.833 336.5,357.167 336.5,364.5C 331.77,364.717 327.103,364.383 322.5,363.5C 321.5,362.167 320.5,360.833 319.5,359.5C 319.573,357.973 318.906,356.973 317.5,356.5C 315.738,355.738 314.738,354.404 314.5,352.5C 314.167,351.5 313.5,350.833 312.5,350.5C 311.514,354.97 311.181,359.637 311.5,364.5C 309.5,364.5 307.5,364.5 305.5,364.5C 305.5,357.167 305.5,349.833 305.5,342.5 Z"/></g>
<g><path style="opacity:0.824" fill="#f6928e" d="M 320.5,346.5 C 322.587,347.585 323.92,349.251 324.5,351.5C 323.167,350.5 321.833,349.5 320.5,348.5C 320.5,347.833 320.5,347.167 320.5,346.5 Z"/></g>
<g><path style="opacity:1" fill="#f40605" d="M 317.5,344.5 C 318.5,345.167 319.5,345.833 320.5,346.5C 320.5,347.167 320.5,347.833 320.5,348.5C 319.594,349.965 318.261,350.965 316.5,351.5C 315.614,350.675 315.281,349.675 315.5,348.5C 313.856,348.286 312.356,348.62 311,349.5C 310.501,354.155 310.334,358.821 310.5,363.5C 309.167,363.5 307.833,363.5 306.5,363.5C 306.5,356.833 306.5,350.167 306.5,343.5C 310.269,343.244 313.936,343.577 317.5,344.5 Z"/></g>
<g><path style="opacity:0.639" fill="#f8a79c" d="M 317.5,342.5 C 319.262,343.262 320.262,344.596 320.5,346.5C 319.5,345.833 318.5,345.167 317.5,344.5C 317.5,343.833 317.5,343.167 317.5,342.5 Z"/></g>
<g><path style="opacity:0.161" fill="#c4c4c4" d="M 144.5,348.5 C 144.573,350.027 143.906,351.027 142.5,351.5C 141.984,350.242 142.65,349.242 144.5,348.5 Z"/></g>
<g><path style="opacity:0.678" fill="#d15351" d="M 329.5,342.5 C 329.5,346.833 329.5,351.167 329.5,355.5C 328.833,356.833 328.167,356.833 327.5,355.5C 328.167,351.167 328.833,346.833 329.5,342.5 Z"/></g>
<g><path style="opacity:0.251" fill="#fcb4b2" d="M 337.5,341.5 C 337.5,341.833 337.5,342.167 337.5,342.5C 337.5,349.833 337.5,357.167 337.5,364.5C 345.684,364.826 353.684,364.492 361.5,363.5C 361.5,361.833 361.5,360.167 361.5,358.5C 356.167,358.5 350.833,358.5 345.5,358.5C 345.5,355.167 345.5,351.833 345.5,348.5C 345.833,348.5 346.167,348.5 346.5,348.5C 350.5,349.167 354.5,349.833 358.5,350.5C 354.5,350.5 350.5,350.5 346.5,350.5C 346.216,352.415 346.549,354.081 347.5,355.5C 347.5,355.833 347.5,356.167 347.5,356.5C 351.771,357.214 356.771,357.88 362.5,358.5C 363.42,360.786 363.42,363.119 362.5,365.5C 349.496,365.667 336.496,365.5 323.5,365C 322.944,364.617 322.611,364.117 322.5,363.5C 327.103,364.383 331.77,364.717 336.5,364.5C 336.5,357.167 336.5,349.833 336.5,342.5C 334.167,342.5 331.833,342.5 329.5,342.5C 328.833,346.833 328.167,351.167 327.5,355.5C 326.5,354.833 325.5,354.167 324.5,353.5C 324.5,352.833 324.5,352.167 324.5,351.5C 325.458,351.953 326.292,352.619 327,353.5C 327.173,349.459 327.673,345.459 328.5,341.5C 331.495,340.276 334.495,340.276 337.5,341.5 Z"/></g>
<g><path style="opacity:0.804" fill="#d35f5b" d="M 358.5,350.5 C 359.807,352.223 359.807,354.057 358.5,356C 354.848,356.499 351.182,356.665 347.5,356.5C 347.5,356.167 347.5,355.833 347.5,355.5C 346.549,354.081 346.216,352.415 346.5,350.5C 350.5,350.5 354.5,350.5 358.5,350.5 Z"/></g>
<g><path style="opacity:0.962" fill="#c0211c" d="M 275.5,345.5 C 275.171,351.206 275.505,356.872 276.5,362.5C 283.776,363.465 291.109,363.799 298.5,363.5C 291.687,364.491 284.687,364.825 277.5,364.5C 275.5,364.5 274.5,363.5 274.5,361.5C 274.179,355.974 274.512,350.64 275.5,345.5 Z"/></g>
<g><path style="opacity:0.104" fill="#ffd1cd" d="M 279.5,341.5 C 285.653,340.347 291.986,340.18 298.5,341C 300.887,341.564 302.887,342.73 304.5,344.5C 304.5,350.833 304.5,357.167 304.5,363.5C 303.833,363.167 303.167,362.833 302.5,362.5C 303.804,356.734 303.804,351.067 302.5,345.5C 301.599,343.273 299.933,342.273 297.5,342.5C 291.69,341.51 285.69,341.177 279.5,341.5 Z"/></g>
<g><path style="opacity:0.761" fill="#db3f3b" d="M 302.5,345.5 C 303.804,351.067 303.804,356.734 302.5,362.5C 302.5,363.167 302.167,363.5 301.5,363.5C 300.5,363.5 299.5,363.5 298.5,363.5C 299.209,362.596 300.209,362.263 301.5,362.5C 302.22,356.862 302.553,351.196 302.5,345.5 Z"/></g>
<g><path style="opacity:1" fill="#ee0805" d="M 347.5,355.5 C 347.5,354.167 347.5,352.833 347.5,351.5C 350.833,351.5 354.167,351.5 357.5,351.5C 357.5,352.833 357.5,354.167 357.5,355.5C 354.167,355.5 350.833,355.5 347.5,355.5 Z"/></g>
<g><path style="opacity:0.014" fill="#ffd9d2" d="M 312.5,350.5 C 313.5,350.833 314.167,351.5 314.5,352.5C 313.833,353.5 313.167,354.5 312.5,355.5C 312.5,353.833 312.5,352.167 312.5,350.5 Z"/></g>
<g><path style="opacity:0.341" fill="#9d9d9d" d="M 142.5,352.5 C 142.573,354.027 141.906,355.027 140.5,355.5C 140.427,353.973 141.094,352.973 142.5,352.5 Z"/></g>
<g><path style="opacity:0.357" fill="#999999" d="M 151.5,354.5 C 152.833,354.5 154.167,354.5 155.5,354.5C 154.329,355.345 152.995,356.011 151.5,356.5C 151.5,355.833 151.5,355.167 151.5,354.5 Z"/></g>
<g><path style="opacity:0.408" fill="#909090" d="M 163.5,352.5 C 164.906,352.973 165.573,353.973 165.5,355.5C 164.094,355.027 163.427,354.027 163.5,352.5 Z"/></g>
<g><path style="opacity:0.69" fill="#757575" d="M 171.5,341.5 C 173.948,340.527 176.615,340.194 179.5,340.5C 179.5,346.167 179.5,351.833 179.5,357.5C 179.5,357.833 179.5,358.167 179.5,358.5C 178.511,353.025 178.178,347.358 178.5,341.5C 176.167,341.5 173.833,341.5 171.5,341.5 Z"/></g>
<g><path style="opacity:1" fill="#f70403" d="M 324.5,353.5 C 325.5,354.167 326.5,354.833 327.5,355.5C 328.167,356.833 328.833,356.833 329.5,355.5C 330.483,351.702 330.817,347.702 330.5,343.5C 331.833,343.5 333.167,343.5 334.5,343.5C 334.5,349.833 334.5,356.167 334.5,362.5C 331.167,362.5 327.833,362.5 324.5,362.5C 324.579,361.07 324.246,359.736 323.5,358.5C 321.167,357.5 319.5,355.833 318.5,353.5C 319.771,353.874 320.938,353.208 322,351.5C 322.708,352.381 323.542,353.047 324.5,353.5 Z"/></g>
<g><path style="opacity:0.059" fill="#d6d6d6" d="M 140.5,355.5 C 140.672,356.492 140.338,357.158 139.5,357.5C 137.969,356.075 138.302,355.409 140.5,355.5 Z"/></g>
<g><path style="opacity:1" fill="#ee140e" d="M 345.5,347.5 C 345.5,347.833 345.5,348.167 345.5,348.5C 345.5,351.833 345.5,355.167 345.5,358.5C 350.833,358.5 356.167,358.5 361.5,358.5C 361.5,360.167 361.5,361.833 361.5,363.5C 353.833,363.5 346.167,363.5 338.5,363.5C 338.5,356.833 338.5,350.167 338.5,343.5C 345.833,343.5 353.167,343.5 360.5,343.5C 360.5,344.5 360.5,345.5 360.5,346.5C 355.305,346.179 350.305,346.513 345.5,347.5 Z"/></g>
<g><path style="opacity:0.004" fill="#f0f1f0" d="M 168.5,356.5 C 169.833,357.167 169.833,357.167 168.5,356.5 Z"/></g>
<g><path style="opacity:0.484" fill="#f28f93" d="M 275.5,343.5 C 275.5,344.167 275.5,344.833 275.5,345.5C 274.512,350.64 274.179,355.974 274.5,361.5C 273.804,357.769 273.138,353.935 272.5,350C 272.95,347.467 273.95,345.3 275.5,343.5 Z"/></g>
<g><path style="opacity:0.288" fill="#ffb4b4" d="M 281.5,348.5 C 281.833,348.5 282.167,348.5 282.5,348.5C 282.5,351.5 282.5,354.5 282.5,357.5C 286.833,357.5 291.167,357.5 295.5,357.5C 295.736,354.391 295.403,351.391 294.5,348.5C 294.833,348.5 295.167,348.5 295.5,348.5C 296.479,351.625 296.813,354.958 296.5,358.5C 291.5,358.5 286.5,358.5 281.5,358.5C 281.5,355.167 281.5,351.833 281.5,348.5 Z M 282.5,348.5 C 286.292,349.49 290.292,349.49 294.5,348.5C 295.403,351.391 295.736,354.391 295.5,357.5C 291.167,357.5 286.833,357.5 282.5,357.5C 282.5,354.5 282.5,351.5 282.5,348.5 Z"/></g>
<g><path style="opacity:0.008" fill="#fec6c1" d="M 317.5,356.5 C 318.906,356.973 319.573,357.973 319.5,359.5C 318.094,359.027 317.427,358.027 317.5,356.5 Z"/></g>
<g><path style="opacity:0.427" fill="#c0c0c0" d="M 139.5,357.5 C 139.573,359.027 138.906,360.027 137.5,360.5C 136.509,358.877 137.176,357.877 139.5,357.5 Z"/></g>
<g><path style="opacity:0.463" fill="#8a8a8a" d="M 149.5,358.5 C 149.833,358.5 150.167,358.5 150.5,358.5C 153.203,360.11 156.203,361.11 159.5,361.5C 155.629,361.815 151.962,361.482 148.5,360.5C 149.338,360.158 149.672,359.492 149.5,358.5 Z"/></g>
<g><path style="opacity:0.604" fill="#d36b68" d="M 304.5,342.5 C 304.833,342.5 305.167,342.5 305.5,342.5C 305.5,349.833 305.5,357.167 305.5,364.5C 307.5,364.5 309.5,364.5 311.5,364.5C 311.181,359.637 311.514,354.97 312.5,350.5C 312.5,352.167 312.5,353.833 312.5,355.5C 312.837,358.656 312.837,361.989 312.5,365.5C 309.302,366.036 306.635,365.369 304.5,363.5C 304.5,357.167 304.5,350.833 304.5,344.5C 304.5,343.833 304.5,343.167 304.5,342.5 Z"/></g>
<g><path style="opacity:0.004" fill="#eaeaea" d="M 137.5,361.5 C 137.5,362.167 137.167,362.5 136.5,362.5C 136.167,362.5 135.833,362.5 135.5,362.5C 135.409,360.302 136.075,359.969 137.5,361.5 Z"/></g>
<g><path style="opacity:1" fill="#c11616" d="M 337.5,342.5 C 345.5,342.5 353.5,342.5 361.5,342.5C 361.5,344.167 361.5,345.833 361.5,347.5C 356.167,347.5 350.833,347.5 345.5,347.5C 350.305,346.513 355.305,346.179 360.5,346.5C 360.5,345.5 360.5,344.5 360.5,343.5C 353.167,343.5 345.833,343.5 338.5,343.5C 338.5,350.167 338.5,356.833 338.5,363.5C 346.167,363.5 353.833,363.5 361.5,363.5C 353.684,364.492 345.684,364.826 337.5,364.5C 337.5,357.167 337.5,349.833 337.5,342.5 Z"/></g>
<g><path style="opacity:0.205" fill="#c9c9c9" d="M 135.5,362.5 C 135.5,363.167 135.833,363.5 136.5,363.5C 139.287,364.477 142.287,364.81 145.5,364.5C 142.36,365.641 139.027,365.808 135.5,365C 134.226,364.023 134.226,363.189 135.5,362.5 Z"/></g>
<g><path style="opacity:0.218" fill="#b9b9b9" d="M 217.5,358.5 C 212.5,358.5 207.5,358.5 202.5,358.5C 202.5,352.833 202.5,347.167 202.5,341.5C 200.167,341.5 197.833,341.5 195.5,341.5C 195.5,349.167 195.5,356.833 195.5,364.5C 202.833,364.5 210.167,364.5 217.5,364.5C 198.5,365.833 179.5,365.833 160.5,364.5C 163.713,364.81 166.713,364.477 169.5,363.5C 170.167,356.167 170.833,348.833 171.5,341.5C 171.5,349.167 171.5,356.833 171.5,364.5C 178.833,364.5 186.167,364.5 193.5,364.5C 193.5,362.5 193.5,360.5 193.5,358.5C 188.833,358.5 184.167,358.5 179.5,358.5C 179.5,358.167 179.5,357.833 179.5,357.5C 184.5,357.5 189.5,357.5 194.5,357.5C 194.5,351.833 194.5,346.167 194.5,340.5C 197.5,340.5 200.5,340.5 203.5,340.5C 203.5,346.167 203.5,351.833 203.5,357.5C 208.363,357.181 213.03,357.514 217.5,358.5 Z"/></g>
<g><path style="opacity:0.027" fill="#f2f3f2" d="M 192.5,355.5 C 193.833,356.167 193.833,356.167 192.5,355.5 Z"/></g>
<g><path style="opacity:0.02" fill="#edeeed" d="M 180.5,355.5 C 181.833,356.167 181.833,356.167 180.5,355.5 Z"/></g>
<g><path style="opacity:1" fill="#030303" d="M 171.5,341.5 C 173.833,341.5 176.167,341.5 178.5,341.5C 178.178,347.358 178.511,353.025 179.5,358.5C 184.167,358.5 188.833,358.5 193.5,358.5C 193.5,360.5 193.5,362.5 193.5,364.5C 186.167,364.5 178.833,364.5 171.5,364.5C 171.5,356.833 171.5,349.167 171.5,341.5 Z"/></g>
<g><path style="opacity:0.439" fill="#fea2a1" d="M 298.5,363.5 C 299.5,363.5 300.5,363.5 301.5,363.5C 301.082,364.222 300.416,364.722 299.5,365C 295.646,365.354 291.812,365.854 288,366.5C 284.323,366.028 280.823,365.362 277.5,364.5C 284.687,364.825 291.687,364.491 298.5,363.5 Z"/></g>
</svg>
