<?xml version="1.0" encoding="UTF-8"?>
<!DOCTYPE svg PUBLIC "-//W3C//DTD SVG 1.1//EN" "http://www.w3.org/Graphics/SVG/1.1/DTD/svg11.dtd">
<svg xmlns="http://www.w3.org/2000/svg" version="1.1" width="472px" height="529px" style="shape-rendering:geometricPrecision; text-rendering:geometricPrecision; image-rendering:optimizeQuality; fill-rule:evenodd; clip-rule:evenodd" xmlns:xlink="http://www.w3.org/1999/xlink">
<g><path style="opacity:0.706" fill="#b1aaa5" d="M 224.5,86.5 C 221.482,86.7038 218.482,87.0371 215.5,87.5C 218.373,85.5185 221.373,85.1851 224.5,86.5 Z"/></g>
<g><path style="opacity:0.461" fill="#a79e96" d="M 211.5,90.5 C 211.389,91.1174 211.056,91.6174 210.5,92C 206.179,92.499 201.846,92.6657 197.5,92.5C 202.01,91.659 206.676,90.9924 211.5,90.5 Z"/></g>
<g><path style="opacity:1" fill="#654f43" d="M 226.5,88.5 C 227.376,88.3691 228.043,88.7025 228.5,89.5C 227.189,90.2575 226.689,91.2575 227,92.5C 230.229,95.9433 233.229,99.61 236,103.5C 237.693,107.653 239.527,111.653 241.5,115.5C 239.91,115.372 238.577,114.705 237.5,113.5C 236.009,108.847 233.509,104.847 230,101.5C 227.982,105.438 228.149,109.272 230.5,113C 230.616,116.74 230.616,120.573 230.5,124.5C 234.351,131.055 237.018,138.055 238.5,145.5C 240.788,147.599 242.455,150.099 243.5,153C 240.595,152.316 237.595,151.483 234.5,150.5C 225.985,143.555 216.652,137.555 206.5,132.5C 203.591,129.423 200.258,126.923 196.5,125C 192.764,120.984 188.93,117.151 185,113.5C 184,111.5 183,109.5 182,107.5C 181.792,105.141 181.626,102.974 181.5,101C 179.463,101.483 177.463,102.316 175.5,103.5C 177.313,100.353 179.98,98.3528 183.5,97.5C 183.196,98.1499 182.863,98.8165 182.5,99.5C 187.167,100.167 191.833,100.833 196.5,101.5C 201.362,106.108 206.029,110.941 210.5,116C 212.664,116.914 214.664,118.081 216.5,119.5C 217.583,118.635 217.749,117.635 217,116.5C 211.64,111.14 206.306,105.806 201,100.5C 199.991,98.9751 199.491,97.3084 199.5,95.5C 204.511,95.6659 209.511,95.4993 214.5,95C 217.534,93.614 220.2,91.7807 222.5,89.5C 223.689,88.5713 225.022,88.238 226.5,88.5 Z"/></g>
<g><path style="opacity:1" fill="#6e584d" d="M 224.5,86.5 C 228.933,87.2145 232.6,89.2145 235.5,92.5C 235.5,92.8333 235.5,93.1667 235.5,93.5C 237.5,96.8333 239.5,100.167 241.5,103.5C 245.597,110.23 249.431,117.23 253,124.5C 254.798,130.428 256.298,136.428 257.5,142.5C 257.333,143.167 257.167,143.833 257,144.5C 255.887,143.695 254.721,143.028 253.5,142.5C 251.787,137.896 249.287,133.562 246,129.5C 244.178,124.856 242.678,120.19 241.5,115.5C 239.527,111.653 237.693,107.653 236,103.5C 233.229,99.61 230.229,95.9433 227,92.5C 226.689,91.2575 227.189,90.2575 228.5,89.5C 228.043,88.7025 227.376,88.3691 226.5,88.5C 225.833,87.8333 225.167,87.1667 224.5,86.5 Z"/></g>
<g><path style="opacity:0.535" fill="#aea7a2" d="M 235.5,93.5 C 235.5,93.1667 235.5,92.8333 235.5,92.5C 241.966,93.0903 248.3,93.757 254.5,94.5C 248.077,94.7912 241.744,94.4578 235.5,93.5 Z"/></g>
<g><path style="opacity:0.98" fill="#92867e" d="M 193.5,95.5 C 193.389,96.1174 193.056,96.6174 192.5,97C 189.518,97.498 186.518,97.6646 183.5,97.5C 186.656,96.5661 189.989,95.8994 193.5,95.5 Z"/></g>
<g><path style="opacity:1" fill="#544035" d="M 224.5,86.5 C 225.167,87.1667 225.833,87.8333 226.5,88.5C 225.022,88.238 223.689,88.5713 222.5,89.5C 220.2,91.7807 217.534,93.614 214.5,95C 209.511,95.4993 204.511,95.6659 199.5,95.5C 199.491,97.3084 199.991,98.9751 201,100.5C 206.306,105.806 211.64,111.14 217,116.5C 217.749,117.635 217.583,118.635 216.5,119.5C 214.664,118.081 212.664,116.914 210.5,116C 206.029,110.941 201.362,106.108 196.5,101.5C 191.833,100.833 187.167,100.167 182.5,99.5C 182.863,98.8165 183.196,98.1499 183.5,97.5C 186.518,97.6646 189.518,97.498 192.5,97C 193.056,96.6174 193.389,96.1174 193.5,95.5C 194.262,93.7376 195.596,92.7376 197.5,92.5C 201.846,92.6657 206.179,92.499 210.5,92C 211.056,91.6174 211.389,91.1174 211.5,90.5C 212.262,88.7376 213.596,87.7376 215.5,87.5C 218.482,87.0371 221.482,86.7038 224.5,86.5 Z"/></g>
<g><path style="opacity:1" fill="#513d31" d="M 235.5,93.5 C 241.744,94.4578 248.077,94.7912 254.5,94.5C 255.957,97.5173 258.29,99.5173 261.5,100.5C 265.156,105.945 268.156,111.778 270.5,118C 269.354,118.645 268.354,119.478 267.5,120.5C 263.831,117.148 259.831,114.148 255.5,111.5C 255.167,111.833 254.833,112.167 254.5,112.5C 255.95,113.85 256.617,115.516 256.5,117.5C 255.127,117.657 253.793,117.49 252.5,117C 249.791,113.748 247.458,110.248 245.5,106.5C 244.148,105.476 242.815,104.476 241.5,103.5C 239.5,100.167 237.5,96.8333 235.5,93.5 Z"/></g>
<g><path style="opacity:1" fill="#4b392d" d="M 234.5,150.5 C 235.5,151.833 236.5,153.167 237.5,154.5C 230.592,149.45 223.259,144.95 215.5,141C 212.289,139.555 209.123,139.055 206,139.5C 203.44,138.47 200.94,137.303 198.5,136C 190.716,130.714 183.382,124.88 176.5,118.5C 174.36,116.3 172.86,113.633 172,110.5C 171.454,113.899 171.787,117.232 173,120.5C 175.472,122.298 177.139,124.632 178,127.5C 182.648,130.981 186.815,134.981 190.5,139.5C 197.398,144.779 204.731,149.279 212.5,153C 217.931,153.477 222.931,155.144 227.5,158C 226.263,158.232 225.263,158.732 224.5,159.5C 219.833,159.5 215.167,159.5 210.5,159.5C 213.305,158.681 216.305,158.181 219.5,158C 213.573,157.395 207.906,156.229 202.5,154.5C 203.873,154.657 205.207,154.49 206.5,154C 200.147,150.157 194.147,145.823 188.5,141C 183.933,135.021 178.599,129.854 172.5,125.5C 171.614,124.675 171.281,123.675 171.5,122.5C 167.224,122.302 164.224,124.136 162.5,128C 165.382,135.271 170.049,141.104 176.5,145.5C 172.549,143.388 168.716,141.054 165,138.5C 164.047,136.545 162.713,134.878 161,133.5C 160.667,130.167 160.333,126.833 160,123.5C 159.617,124.056 159.117,124.389 158.5,124.5C 158.66,122.847 159.326,121.514 160.5,120.5C 162.167,119.5 163.5,118.167 164.5,116.5C 166.674,116.25 168.341,115.25 169.5,113.5C 169.997,109.157 171.997,105.824 175.5,103.5C 177.463,102.316 179.463,101.483 181.5,101C 181.626,102.974 181.792,105.141 182,107.5C 183,109.5 184,111.5 185,113.5C 188.93,117.151 192.764,120.984 196.5,125C 200.258,126.923 203.591,129.423 206.5,132.5C 216.652,137.555 225.985,143.555 234.5,150.5 Z"/></g>
<g><path style="opacity:1" fill="#554135" d="M 241.5,115.5 C 242.678,120.19 244.178,124.856 246,129.5C 249.287,133.562 251.787,137.896 253.5,142.5C 254.673,145.067 255.839,147.733 257,150.5C 260.932,156.27 265.432,161.603 270.5,166.5C 269.078,166.291 267.745,165.791 266.5,165C 260.648,159.812 255.481,153.979 251,147.5C 250.5,148.5 250,149.5 249.5,150.5C 250.229,153.319 250.229,156.319 249.5,159.5C 245.229,158.361 241.229,156.694 237.5,154.5C 236.5,153.167 235.5,151.833 234.5,150.5C 237.595,151.483 240.595,152.316 243.5,153C 242.455,150.099 240.788,147.599 238.5,145.5C 237.018,138.055 234.351,131.055 230.5,124.5C 230.616,120.573 230.616,116.74 230.5,113C 228.149,109.272 227.982,105.438 230,101.5C 233.509,104.847 236.009,108.847 237.5,113.5C 238.577,114.705 239.91,115.372 241.5,115.5 Z"/></g>
<g><path style="opacity:0.31" fill="#b3ada9" d="M 169.5,113.5 C 168.341,115.25 166.674,116.25 164.5,116.5C 165.659,114.75 167.326,113.75 169.5,113.5 Z"/></g>
<g><path style="opacity:0.533" fill="#afa8a4" d="M 164.5,116.5 C 163.5,118.167 162.167,119.5 160.5,120.5C 160.833,118.167 162.167,116.833 164.5,116.5 Z"/></g>
<g><path style="opacity:0.616" fill="#c0bab7" d="M 301.5,117.5 C 303.5,118.833 305.167,120.5 306.5,122.5C 303.833,121.833 302.167,120.167 301.5,117.5 Z"/></g>
<g><path style="opacity:1" fill="#5f4a3e" d="M 261.5,100.5 C 265.297,103.489 268.797,106.822 272,110.5C 273.156,115.122 273.99,119.789 274.5,124.5C 277.346,124.809 278.846,126.475 279,129.5C 279.677,133.709 280.177,137.709 280.5,141.5C 278.537,143.183 278.37,144.849 280,146.5C 280.333,146.167 280.667,145.833 281,145.5C 281.667,146.833 281.667,148.167 281,149.5C 278.96,147.961 276.794,147.127 274.5,147C 274.833,146.667 275.167,146.333 275.5,146C 273.348,143.531 271.848,140.698 271,137.5C 270.147,135.875 269.147,135.542 268,136.5C 267.517,135.552 267.351,134.552 267.5,133.5C 266.448,133.351 265.448,133.517 264.5,134C 266.247,139.239 267.58,144.572 268.5,150C 268.676,151.66 268.009,153.326 266.5,155C 268.301,155.317 268.634,155.984 267.5,157C 269.361,161.539 272.195,162.705 276,160.5C 276.333,160.833 276.667,161.167 277,161.5C 278.714,159.063 280.547,156.73 282.5,154.5C 283.967,155.695 285.467,155.695 287,154.5C 288.261,154.759 289.261,155.426 290,156.5C 292.707,154.353 294.207,151.519 294.5,148C 293.653,143.895 292.987,139.728 292.5,135.5C 294.622,140.011 296.622,144.678 298.5,149.5C 297.914,153.195 297.247,156.862 296.5,160.5C 294.972,161.861 293.305,163.028 291.5,164C 284.622,165.883 277.622,166.716 270.5,166.5C 265.432,161.603 260.932,156.27 257,150.5C 255.839,147.733 254.673,145.067 253.5,142.5C 254.721,143.028 255.887,143.695 257,144.5C 257.167,143.833 257.333,143.167 257.5,142.5C 256.298,136.428 254.798,130.428 253,124.5C 249.431,117.23 245.597,110.23 241.5,103.5C 242.815,104.476 244.148,105.476 245.5,106.5C 247.458,110.248 249.791,113.748 252.5,117C 253.793,117.49 255.127,117.657 256.5,117.5C 256.617,115.516 255.95,113.85 254.5,112.5C 254.833,112.167 255.167,111.833 255.5,111.5C 259.831,114.148 263.831,117.148 267.5,120.5C 268.354,119.478 269.354,118.645 270.5,118C 268.156,111.778 265.156,105.945 261.5,100.5 Z"/></g>
<g><path style="opacity:1" fill="#5c473b" d="M 202.5,154.5 C 196.606,152.704 190.606,151.204 184.5,150C 181.671,148.644 179.004,147.144 176.5,145.5C 170.049,141.104 165.382,135.271 162.5,128C 164.224,124.136 167.224,122.302 171.5,122.5C 171.281,123.675 171.614,124.675 172.5,125.5C 178.599,129.854 183.933,135.021 188.5,141C 194.147,145.823 200.147,150.157 206.5,154C 205.207,154.49 203.873,154.657 202.5,154.5 Z"/></g>
<g><path style="opacity:1" fill="#685246" d="M 254.5,94.5 C 260.529,96.0148 265.863,98.8481 270.5,103C 276.992,104.106 282.992,106.272 288.5,109.5C 286.585,109.784 284.919,109.451 283.5,108.5C 281.831,107.34 279.997,107.34 278,108.5C 275.976,108.2 275.476,107.367 276.5,106C 274.553,105.009 272.553,104.675 270.5,105C 280.576,113.517 287.909,123.684 292.5,135.5C 292.987,139.728 293.653,143.895 294.5,148C 294.207,151.519 292.707,154.353 290,156.5C 289.261,155.426 288.261,154.759 287,154.5C 285.467,155.695 283.967,155.695 282.5,154.5C 280.547,156.73 278.714,159.063 277,161.5C 276.667,161.167 276.333,160.833 276,160.5C 272.195,162.705 269.361,161.539 267.5,157C 268.634,155.984 268.301,155.317 266.5,155C 268.009,153.326 268.676,151.66 268.5,150C 267.58,144.572 266.247,139.239 264.5,134C 265.448,133.517 266.448,133.351 267.5,133.5C 267.351,134.552 267.517,135.552 268,136.5C 269.147,135.542 270.147,135.875 271,137.5C 271.848,140.698 273.348,143.531 275.5,146C 275.167,146.333 274.833,146.667 274.5,147C 276.794,147.127 278.96,147.961 281,149.5C 281.667,148.167 281.667,146.833 281,145.5C 280.667,145.833 280.333,146.167 280,146.5C 278.37,144.849 278.537,143.183 280.5,141.5C 280.177,137.709 279.677,133.709 279,129.5C 278.846,126.475 277.346,124.809 274.5,124.5C 273.99,119.789 273.156,115.122 272,110.5C 268.797,106.822 265.297,103.489 261.5,100.5C 258.29,99.5173 255.957,97.5173 254.5,94.5 Z"/></g>
<g><path style="opacity:1" fill="#817168" d="M 311.5,125.5 C 314.473,127.147 317.14,129.147 319.5,131.5C 318.06,130.637 316.726,130.637 315.5,131.5C 314.482,129.175 313.149,127.175 311.5,125.5 Z"/></g>
<g><path style="opacity:1" fill="#4f3c31" d="M 283.5,108.5 C 281.645,108.272 280.812,108.939 281,110.5C 285.667,113.833 289.667,117.833 293,122.5C 296.23,127.956 299.23,133.623 302,139.5C 304.097,147.245 307.097,154.578 311,161.5C 320.74,169.827 324.907,167.493 323.5,154.5C 326.651,159.443 326.984,164.61 324.5,170C 322.782,170.346 321.115,170.846 319.5,171.5C 314.054,170.182 308.887,168.182 304,165.5C 298.221,167.311 292.054,168.644 285.5,169.5C 280.199,169.373 275.199,168.373 270.5,166.5C 277.622,166.716 284.622,165.883 291.5,164C 293.305,163.028 294.972,161.861 296.5,160.5C 297.247,156.862 297.914,153.195 298.5,149.5C 296.622,144.678 294.622,140.011 292.5,135.5C 287.909,123.684 280.576,113.517 270.5,105C 272.553,104.675 274.553,105.009 276.5,106C 275.476,107.367 275.976,108.2 278,108.5C 279.997,107.34 281.831,107.34 283.5,108.5 Z"/></g>
<g><path style="opacity:1" fill="#322319" d="M 176.5,118.5 C 181.135,124.22 186.135,129.72 191.5,135C 197.15,139.655 203.483,142.988 210.5,145C 212.909,146.201 214.909,147.867 216.5,150C 226.504,153.584 236.171,157.917 245.5,163C 257.798,166.144 270.132,169.144 282.5,172C 283.949,173.117 285.616,173.784 287.5,174C 286.552,174.483 285.552,174.649 284.5,174.5C 273.096,172.482 261.763,170.149 250.5,167.5C 250.167,167.5 249.833,167.5 249.5,167.5C 242.021,162.539 233.687,159.873 224.5,159.5C 225.263,158.732 226.263,158.232 227.5,158C 222.931,155.144 217.931,153.477 212.5,153C 204.731,149.279 197.398,144.779 190.5,139.5C 186.815,134.981 182.648,130.981 178,127.5C 177.139,124.632 175.472,122.298 173,120.5C 171.787,117.232 171.454,113.899 172,110.5C 172.86,113.633 174.36,116.3 176.5,118.5 Z"/></g>
<g><path style="opacity:0.969" fill="#908781" d="M 154.5,131.5 C 153.962,133.117 153.629,134.784 153.5,136.5C 152.5,136.5 151.5,136.5 150.5,136.5C 151.834,134.804 153.168,133.138 154.5,131.5 Z"/></g>
<g><path style="opacity:1" fill="#685246" d="M 292.5,111.5 C 295.643,113.242 298.643,115.242 301.5,117.5C 302.167,120.167 303.833,121.833 306.5,122.5C 308.368,123.263 310.035,124.263 311.5,125.5C 310.325,125.281 309.325,125.614 308.5,126.5C 315.184,133.201 319.184,141.201 320.5,150.5C 319.932,152.204 319.932,153.704 320.5,155C 319.07,156.44 317.403,156.774 315.5,156C 309.292,147.087 303.459,137.921 298,128.5C 297.5,127.5 297,126.5 296.5,125.5C 297.989,125.467 299.322,124.967 300.5,124C 298.205,120.703 295.538,117.703 292.5,115C 293.684,113.855 293.684,112.688 292.5,111.5 Z"/></g>
<g><path style="opacity:0.627" fill="#a79f9b" d="M 150.5,136.5 C 149.5,138.167 148.167,139.5 146.5,140.5C 146.833,138.167 148.167,136.833 150.5,136.5 Z"/></g>
<g><path style="opacity:1" fill="#433328" d="M 157.5,129.5 C 157.389,130.117 157.056,130.617 156.5,131C 157.249,132.734 157.749,134.567 158,136.5C 160.934,138.518 163.434,140.852 165.5,143.5C 163.577,143.205 161.91,142.372 160.5,141C 156.889,139.746 155.389,140.912 156,144.5C 156.995,145.066 157.828,145.733 158.5,146.5C 153.493,146.249 148.493,145.916 143.5,145.5C 143.5,145.167 143.5,144.833 143.5,144.5C 143.738,142.596 144.738,141.262 146.5,140.5C 148.167,139.5 149.5,138.167 150.5,136.5C 151.5,136.5 152.5,136.5 153.5,136.5C 153.629,134.784 153.962,133.117 154.5,131.5C 154.973,130.094 155.973,129.427 157.5,129.5 Z"/></g>
<g><path style="opacity:0.563" fill="#a5a09d" d="M 143.5,144.5 C 143.5,144.833 143.5,145.167 143.5,145.5C 144.335,149.34 144.335,153.006 143.5,156.5C 142.595,152.333 142.595,148.333 143.5,144.5 Z"/></g>
<g><path style="opacity:1" fill="#403025" d="M 176.5,118.5 C 183.382,124.88 190.716,130.714 198.5,136C 200.94,137.303 203.44,138.47 206,139.5C 209.123,139.055 212.289,139.555 215.5,141C 223.259,144.95 230.592,149.45 237.5,154.5C 241.229,156.694 245.229,158.361 249.5,159.5C 250.229,156.319 250.229,153.319 249.5,150.5C 250,149.5 250.5,148.5 251,147.5C 255.481,153.979 260.648,159.812 266.5,165C 267.745,165.791 269.078,166.291 270.5,166.5C 275.199,168.373 280.199,169.373 285.5,169.5C 292.054,168.644 298.221,167.311 304,165.5C 308.887,168.182 314.054,170.182 319.5,171.5C 321.115,170.846 322.782,170.346 324.5,170C 326.984,164.61 326.651,159.443 323.5,154.5C 323.416,150.682 322.916,147.015 322,143.5C 329.809,153.013 334.142,164.013 335,176.5C 337.039,181.987 340.373,183.32 345,180.5C 347.105,174.16 346.605,167.994 343.5,162C 344.176,160.317 345.176,160.15 346.5,161.5C 346.738,163.404 347.738,164.738 349.5,165.5C 349.949,169.654 350.949,173.654 352.5,177.5C 353.527,176.209 354.527,176.209 355.5,177.5C 356.833,181.833 356.833,186.167 355.5,190.5C 355.666,186.486 355.499,182.486 355,178.5C 354.667,180.167 354.333,181.833 354,183.5C 353.667,182.833 353.333,182.167 353,181.5C 352.124,184.999 349.79,186.332 346,185.5C 339.082,183.852 332.582,181.019 326.5,177C 313.967,174.685 301.301,174.018 288.5,175C 289.737,175.232 290.737,175.732 291.5,176.5C 289.139,176.326 286.806,175.993 284.5,175.5C 284.5,175.167 284.5,174.833 284.5,174.5C 285.552,174.649 286.552,174.483 287.5,174C 285.616,173.784 283.949,173.117 282.5,172C 270.132,169.144 257.798,166.144 245.5,163C 236.171,157.917 226.504,153.584 216.5,150C 214.909,147.867 212.909,146.201 210.5,145C 203.483,142.988 197.15,139.655 191.5,135C 186.135,129.72 181.135,124.22 176.5,118.5 Z"/></g>
<g><path style="opacity:1" fill="#564236" d="M 165.5,143.5 C 168.703,145.268 172.037,146.768 175.5,148C 180.946,153.491 187.612,156.491 195.5,157C 196.833,157.667 196.833,158.333 195.5,159C 190.637,159.809 185.97,159.142 181.5,157C 173.467,153.978 165.8,150.478 158.5,146.5C 157.828,145.733 156.995,145.066 156,144.5C 155.389,140.912 156.889,139.746 160.5,141C 161.91,142.372 163.577,143.205 165.5,143.5 Z"/></g>
<g><path style="opacity:1" fill="#574337" d="M 283.5,108.5 C 284.919,109.451 286.585,109.784 288.5,109.5C 290.153,109.66 291.486,110.326 292.5,111.5C 293.684,112.688 293.684,113.855 292.5,115C 295.538,117.703 298.205,120.703 300.5,124C 299.322,124.967 297.989,125.467 296.5,125.5C 297,126.5 297.5,127.5 298,128.5C 303.459,137.921 309.292,147.087 315.5,156C 317.403,156.774 319.07,156.44 320.5,155C 319.932,153.704 319.932,152.204 320.5,150.5C 319.184,141.201 315.184,133.201 308.5,126.5C 309.325,125.614 310.325,125.281 311.5,125.5C 313.149,127.175 314.482,129.175 315.5,131.5C 316.726,130.637 318.06,130.637 319.5,131.5C 327.833,137.833 335.167,145.167 341.5,153.5C 341.427,155.027 342.094,156.027 343.5,156.5C 343.427,158.027 344.094,159.027 345.5,159.5C 346.338,159.842 346.672,160.508 346.5,161.5C 345.176,160.15 344.176,160.317 343.5,162C 346.605,167.994 347.105,174.16 345,180.5C 340.373,183.32 337.039,181.987 335,176.5C 334.142,164.013 329.809,153.013 322,143.5C 322.916,147.015 323.416,150.682 323.5,154.5C 324.907,167.493 320.74,169.827 311,161.5C 307.097,154.578 304.097,147.245 302,139.5C 299.23,133.623 296.23,127.956 293,122.5C 289.667,117.833 285.667,113.833 281,110.5C 280.812,108.939 281.645,108.272 283.5,108.5 Z"/></g>
<g><path style="opacity:0.384" fill="#b9b3b0" d="M 341.5,153.5 C 342.906,153.973 343.573,154.973 343.5,156.5C 342.094,156.027 341.427,155.027 341.5,153.5 Z"/></g>
<g><path style="opacity:0.357" fill="#b8b3b0" d="M 343.5,156.5 C 344.906,156.973 345.573,157.973 345.5,159.5C 344.094,159.027 343.427,158.027 343.5,156.5 Z"/></g>
<g><path style="opacity:0.773" fill="#99928e" d="M 143.5,158.5 C 143.59,161.152 142.924,163.485 141.5,165.5C 141.41,162.848 142.076,160.515 143.5,158.5 Z"/></g>
<g><path style="opacity:1" fill="#453428" d="M 184.5,165.5 C 179.873,168.791 175.54,172.458 171.5,176.5C 170.379,174.911 170.546,173.244 172,171.5C 173.558,169.641 175.391,168.141 177.5,167C 171.395,165.84 165.728,166.84 160.5,170C 156.964,173.704 153.298,177.204 149.5,180.5C 152.245,175.218 156.245,171.051 161.5,168C 164.096,166.864 166.763,166.031 169.5,165.5C 169.64,163.876 168.973,162.71 167.5,162C 161.565,160.761 155.565,160.261 149.5,160.5C 148.959,157.348 149.959,154.848 152.5,153C 156.833,152.333 161.167,152.333 165.5,153C 171.691,155.73 178.024,158.063 184.5,160C 185.552,161.716 184.886,162.716 182.5,163C 183.066,163.995 183.733,164.828 184.5,165.5 Z"/></g>
<g><path style="opacity:1" fill="#846345" d="M 204.5,160.5 C 206.265,159.539 208.265,159.205 210.5,159.5C 215.167,159.5 219.833,159.5 224.5,159.5C 233.687,159.873 242.021,162.539 249.5,167.5C 245.64,166.356 241.64,165.689 237.5,165.5C 232.731,163.925 227.731,162.925 222.5,162.5C 216.762,160.772 210.762,160.105 204.5,160.5 Z"/></g>
<g><path style="opacity:0.773" fill="#a69f9a" d="M 346.5,161.5 C 348.262,162.262 349.262,163.596 349.5,165.5C 347.738,164.738 346.738,163.404 346.5,161.5 Z"/></g>
<g><path style="opacity:1" fill="#d2af8f" d="M 204.5,160.5 C 210.762,160.105 216.762,160.772 222.5,162.5C 212.796,162.302 203.13,162.802 193.5,164C 194.167,164.333 194.833,164.667 195.5,165C 193.152,168.843 190.652,172.677 188,176.5C 187.814,178.9 187.314,181.234 186.5,183.5C 184.898,182.45 184.065,183.117 184,185.5C 182.899,191.2 182.732,196.866 183.5,202.5C 182.711,208.694 181.378,215.027 179.5,221.5C 179.747,222.713 180.414,223.38 181.5,223.5C 180.167,224.933 178.667,226.267 177,227.5C 176.36,229.265 176.527,230.932 177.5,232.5C 175.255,232.541 174.588,233.375 175.5,235C 173.577,238.178 171.911,241.512 170.5,245C 167.21,258.672 163.377,272.505 159,286.5C 158.256,290.727 157.422,294.894 156.5,299C 156.824,303.949 157.324,309.115 158,314.5C 162.866,326.565 168.532,338.231 175,349.5C 177,354.833 179,360.167 181,365.5C 184.021,369.544 186.521,373.877 188.5,378.5C 197.016,383.923 205.349,389.589 213.5,395.5C 214.167,397.5 215.5,398.833 217.5,399.5C 218.429,400.689 218.762,402.022 218.5,403.5C 221.067,403.855 223.567,404.521 226,405.5C 227.225,405.138 228.391,404.638 229.5,404C 222.874,395.926 217.374,387.093 213,377.5C 210.01,374.708 208.177,371.375 207.5,367.5C 210.167,369.833 212.833,372.167 215.5,374.5C 218.546,379.057 222.213,383.224 226.5,387C 233.189,388.945 239.189,392.112 244.5,396.5C 245.736,398.311 245.736,400.144 244.5,402C 248.265,408.858 246.265,413.858 238.5,417C 231.266,419.596 224.599,418.596 218.5,414C 213.245,408.703 207.579,403.869 201.5,399.5C 191.022,387.21 181.522,374.21 173,360.5C 165.798,345.109 159.465,329.442 154,313.5C 152.016,306.271 151.35,298.938 152,291.5C 157.678,272.62 162.178,253.454 165.5,234C 165.741,225.241 165.741,216.408 165.5,207.5C 166.681,201.292 167.681,195.292 168.5,189.5C 168.247,187.142 167.914,184.808 167.5,182.5C 168.441,180.228 169.774,178.228 171.5,176.5C 175.54,172.458 179.873,168.791 184.5,165.5C 191.002,163.208 197.669,161.541 204.5,160.5 Z"/></g>
<g><path style="opacity:1" fill="#debc9c" d="M 222.5,162.5 C 227.731,162.925 232.731,163.925 237.5,165.5C 232.662,165.291 227.829,164.958 223,164.5C 219.742,164.493 216.575,164.993 213.5,166C 209.327,169.841 205.493,174.007 202,178.5C 201.494,183.543 199.994,188.543 197.5,193.5C 197.709,194.086 198.043,194.586 198.5,195C 196.01,203.173 194.01,211.173 192.5,219C 194.058,219.21 195.391,219.71 196.5,220.5C 191.256,220.395 186.256,221.395 181.5,223.5C 180.414,223.38 179.747,222.713 179.5,221.5C 181.378,215.027 182.711,208.694 183.5,202.5C 182.732,196.866 182.899,191.2 184,185.5C 184.065,183.117 184.898,182.45 186.5,183.5C 187.314,181.234 187.814,178.9 188,176.5C 190.652,172.677 193.152,168.843 195.5,165C 194.833,164.667 194.167,164.333 193.5,164C 203.13,162.802 212.796,162.302 222.5,162.5 Z"/></g>
<g><path style="opacity:1" fill="#5b4d44" d="M 349.5,165.5 C 352.54,168.914 354.54,172.914 355.5,177.5C 354.527,176.209 353.527,176.209 352.5,177.5C 350.949,173.654 349.949,169.654 349.5,165.5 Z"/></g>
<g><path style="opacity:1" fill="#36281f" d="M 176.5,145.5 C 179.004,147.144 181.671,148.644 184.5,150C 190.606,151.204 196.606,152.704 202.5,154.5C 207.906,156.229 213.573,157.395 219.5,158C 216.305,158.181 213.305,158.681 210.5,159.5C 208.265,159.205 206.265,159.539 204.5,160.5C 197.669,161.541 191.002,163.208 184.5,165.5C 183.733,164.828 183.066,163.995 182.5,163C 184.886,162.716 185.552,161.716 184.5,160C 178.024,158.063 171.691,155.73 165.5,153C 161.167,152.333 156.833,152.333 152.5,153C 149.959,154.848 148.959,157.348 149.5,160.5C 155.565,160.261 161.565,160.761 167.5,162C 168.973,162.71 169.64,163.876 169.5,165.5C 166.763,166.031 164.096,166.864 161.5,168C 156.245,171.051 152.245,175.218 149.5,180.5C 141.106,195.688 136.106,212.022 134.5,229.5C 133.762,233.462 133.095,237.462 132.5,241.5C 132.657,242.873 132.49,244.207 132,245.5C 131.502,242.518 131.335,239.518 131.5,236.5C 131.907,221.399 134.24,206.733 138.5,192.5C 139.924,190.485 140.59,188.152 140.5,185.5C 140.571,181.303 140.237,177.137 139.5,173C 139.646,170.24 140.313,167.74 141.5,165.5C 142.924,163.485 143.59,161.152 143.5,158.5C 143.5,157.833 143.5,157.167 143.5,156.5C 144.335,153.006 144.335,149.34 143.5,145.5C 148.493,145.916 153.493,146.249 158.5,146.5C 165.8,150.478 173.467,153.978 181.5,157C 185.97,159.142 190.637,159.809 195.5,159C 196.833,158.333 196.833,157.667 195.5,157C 187.612,156.491 180.946,153.491 175.5,148C 172.037,146.768 168.703,145.268 165.5,143.5C 163.434,140.852 160.934,138.518 158,136.5C 157.749,134.567 157.249,132.734 156.5,131C 157.056,130.617 157.389,130.117 157.5,129.5C 157.216,127.585 157.549,125.919 158.5,124.5C 159.117,124.389 159.617,124.056 160,123.5C 160.333,126.833 160.667,130.167 161,133.5C 162.713,134.878 164.047,136.545 165,138.5C 168.716,141.054 172.549,143.388 176.5,145.5 Z"/></g>
<g><path style="opacity:1" fill="#b39275" d="M 250.5,167.5 C 261.763,170.149 273.096,172.482 284.5,174.5C 284.5,174.833 284.5,175.167 284.5,175.5C 281.167,175.167 277.833,174.833 274.5,174.5C 273.5,174.5 272.5,174.5 271.5,174.5C 264.274,172.616 257.274,170.283 250.5,167.5 Z"/></g>
<g><path style="opacity:1" fill="#e6c5a9" d="M 237.5,165.5 C 241.64,165.689 245.64,166.356 249.5,167.5C 249.833,167.5 250.167,167.5 250.5,167.5C 257.274,170.283 264.274,172.616 271.5,174.5C 266.838,174.038 262.171,173.538 257.5,173C 252.014,169.463 246.014,168.129 239.5,169C 232.282,170.929 225.282,174.095 218.5,178.5C 215.986,182.395 213.653,185.895 211.5,189C 211.84,192 211.173,195 209.5,198C 209.833,198.333 210.167,198.667 210.5,199C 208.012,204.727 207.512,210.56 209,216.5C 210.101,218.394 211.434,219.061 213,218.5C 214.507,220.008 216.173,221.341 218,222.5C 218.333,222.167 218.667,221.833 219,221.5C 232.082,225.938 245.415,229.605 259,232.5C 261.352,232.695 263.352,232.028 265,230.5C 265.333,230.833 265.667,231.167 266,231.5C 268.655,229.947 271.488,228.78 274.5,228C 275.701,227.097 276.535,225.931 277,224.5C 277.333,224.833 277.667,225.167 278,225.5C 281.405,220.655 285.238,215.489 289.5,210C 288.833,209.667 288.167,209.333 287.5,209C 289.992,206.62 291.325,203.953 291.5,201C 289.246,199.946 288.913,198.446 290.5,196.5C 288.539,189.911 285.539,183.911 281.5,178.5C 278.979,177.312 276.645,175.978 274.5,174.5C 277.833,174.833 281.167,175.167 284.5,175.5C 289.236,177.426 294.236,178.926 299.5,180C 303.708,184.11 306.042,188.444 306.5,193C 308.125,193.853 308.458,194.853 307.5,196C 309.416,198.94 309.416,202.106 307.5,205.5C 307.833,206.167 308.167,206.833 308.5,207.5C 307.469,208.7 306.635,210.034 306,211.5C 296.05,221.415 285.216,230.915 273.5,240C 267.945,242.024 262.778,243.191 258,243.5C 253.776,240.698 249.276,238.365 244.5,236.5C 243.712,235.23 242.712,234.23 241.5,233.5C 227.285,226.783 212.285,222.449 196.5,220.5C 195.391,219.71 194.058,219.21 192.5,219C 194.01,211.173 196.01,203.173 198.5,195C 198.043,194.586 197.709,194.086 197.5,193.5C 199.994,188.543 201.494,183.543 202,178.5C 205.493,174.007 209.327,169.841 213.5,166C 216.575,164.993 219.742,164.493 223,164.5C 227.829,164.958 232.662,165.291 237.5,165.5 Z"/></g>
<g><path style="opacity:1" fill="#edceb2" d="M 271.5,174.5 C 272.5,174.5 273.5,174.5 274.5,174.5C 276.645,175.978 278.979,177.312 281.5,178.5C 285.539,183.911 288.539,189.911 290.5,196.5C 288.913,198.446 289.246,199.946 291.5,201C 291.325,203.953 289.992,206.62 287.5,209C 288.167,209.333 288.833,209.667 289.5,210C 285.238,215.489 281.405,220.655 278,225.5C 277.667,225.167 277.333,224.833 277,224.5C 276.535,225.931 275.701,227.097 274.5,228C 271.488,228.78 268.655,229.947 266,231.5C 265.667,231.167 265.333,230.833 265,230.5C 263.352,232.028 261.352,232.695 259,232.5C 245.415,229.605 232.082,225.938 219,221.5C 218.667,221.833 218.333,222.167 218,222.5C 216.173,221.341 214.507,220.008 213,218.5C 211.434,219.061 210.101,218.394 209,216.5C 207.512,210.56 208.012,204.727 210.5,199C 210.167,198.667 209.833,198.333 209.5,198C 211.173,195 211.84,192 211.5,189C 213.653,185.895 215.986,182.395 218.5,178.5C 225.282,174.095 232.282,170.929 239.5,169C 246.014,168.129 252.014,169.463 257.5,173C 262.171,173.538 266.838,174.038 271.5,174.5 Z"/></g>
<g><path style="opacity:1" fill="#f1d3b8" d="M 245.5,177.5 C 249.678,178.653 254.012,178.653 258.5,177.5C 259.428,179.335 260.594,179.668 262,178.5C 265.156,179.762 267.99,182.095 270.5,185.5C 271.086,185.291 271.586,184.957 272,184.5C 272.415,186.291 273.415,187.624 275,188.5C 274.333,192.153 275.499,195.32 278.5,198C 276.043,199.154 276.043,200.488 278.5,202C 276.213,203.427 275.88,205.261 277.5,207.5C 275.197,211.079 272.197,214.912 268.5,219C 268.833,219.333 269.167,219.667 269.5,220C 265.283,222.177 261.116,223.677 257,224.5C 255.739,224.241 254.739,223.574 254,222.5C 251.812,223.447 249.478,223.447 247,222.5C 246.935,220.117 246.102,219.45 244.5,220.5C 243.803,218.615 242.803,218.282 241.5,219.5C 238.952,219.247 236.785,217.914 235,215.5C 233.16,216.833 232.66,216.666 233.5,215C 231.43,214.052 229.93,212.552 229,210.5C 227.984,211.634 227.317,211.301 227,209.5C 226.667,210.167 226.333,210.833 226,211.5C 224.5,209.833 223,208.167 221.5,206.5C 222.025,205.808 222.692,205.308 223.5,205C 220.129,200.953 219.796,196.953 222.5,193C 222.167,192 221.833,191 221.5,190C 227.048,184.127 234.215,180.293 243,178.5C 244.726,180.098 245.559,179.765 245.5,177.5 Z"/></g>
<g><path style="opacity:1" fill="#7f6249" d="M 292.5,176.5 C 299.841,176.334 307.174,176.5 314.5,177C 315.416,177.278 316.082,177.778 316.5,178.5C 313.833,178.5 311.167,178.5 308.5,178.5C 302.949,178.473 297.616,177.806 292.5,176.5 Z"/></g>
<g><path style="opacity:1" fill="#5b4738" d="M 171.5,176.5 C 169.774,178.228 168.441,180.228 167.5,182.5C 166.833,182.5 166.5,182.833 166.5,183.5C 165.957,183.44 165.624,183.107 165.5,182.5C 167.07,179.963 167.903,177.296 168,174.5C 166.269,176.617 164.102,178.117 161.5,179C 153.392,189.972 146.392,201.639 140.5,214C 140.735,214.873 141.069,215.707 141.5,216.5C 139.714,221.246 137.381,225.58 134.5,229.5C 136.106,212.022 141.106,195.688 149.5,180.5C 153.298,177.204 156.964,173.704 160.5,170C 165.728,166.84 171.395,165.84 177.5,167C 175.391,168.141 173.558,169.641 172,171.5C 170.546,173.244 170.379,174.911 171.5,176.5 Z"/></g>
<g><path style="opacity:1" fill="#c19e7d" d="M 327.5,181.5 C 334.51,182.521 339.51,186.188 342.5,192.5C 344.124,197.779 345.124,202.946 345.5,208C 343.363,217.71 341.696,227.544 340.5,237.5C 339.487,240.116 338.653,242.782 338,245.5C 337.329,246.252 336.496,246.586 335.5,246.5C 330.447,244.213 325.114,243.046 319.5,243C 311.841,242.5 304.174,242.334 296.5,242.5C 306.358,241.454 316.358,241.287 326.5,242C 326.167,241.667 325.833,241.333 325.5,241C 327.032,238.966 328.365,236.799 329.5,234.5C 329.167,233.833 328.833,233.167 328.5,232.5C 330.555,223.661 332.555,214.828 334.5,206C 334.426,200.183 333.759,194.016 332.5,187.5C 331.029,185.217 329.362,183.217 327.5,181.5 Z"/></g>
<g><path style="opacity:1" fill="#281a11" d="M 355.5,190.5 C 354.536,193.074 353.036,195.408 351,197.5C 350.333,196.833 349.667,196.167 349,195.5C 348.329,196.252 347.496,196.586 346.5,196.5C 345.167,195.167 343.833,193.833 342.5,192.5C 339.51,186.188 334.51,182.521 327.5,181.5C 324.146,179.742 320.479,178.742 316.5,178.5C 316.082,177.778 315.416,177.278 314.5,177C 307.174,176.5 299.841,176.334 292.5,176.5C 292.167,176.5 291.833,176.5 291.5,176.5C 290.737,175.732 289.737,175.232 288.5,175C 301.301,174.018 313.967,174.685 326.5,177C 332.582,181.019 339.082,183.852 346,185.5C 349.79,186.332 352.124,184.999 353,181.5C 353.333,182.167 353.667,182.833 354,183.5C 354.333,181.833 354.667,180.167 355,178.5C 355.499,182.486 355.666,186.486 355.5,190.5 Z"/></g>
<g><path style="opacity:0.773" fill="#9b9590" d="M 140.5,185.5 C 140.59,188.152 139.924,190.485 138.5,192.5C 138.41,189.848 139.076,187.515 140.5,185.5 Z"/></g>
<g><path style="opacity:1" fill="#403228" d="M 355.5,190.5 C 355.119,195.18 356.119,199.514 358.5,203.5C 358.676,206.727 359.343,209.727 360.5,212.5C 359.81,218.81 359.476,225.143 359.5,231.5C 358.199,235.943 357.532,240.609 357.5,245.5C 355.962,257.211 353.295,268.545 349.5,279.5C 348.833,280.167 348.167,280.833 347.5,281.5C 349.269,271.487 351.103,261.487 353,251.5C 353.826,239.659 353.659,227.993 352.5,216.5C 352.416,212.163 351.416,208.163 349.5,204.5C 348.5,201.833 347.5,199.167 346.5,196.5C 347.496,196.586 348.329,196.252 349,195.5C 349.667,196.167 350.333,196.833 351,197.5C 353.036,195.408 354.536,193.074 355.5,190.5 Z"/></g>
<g><path style="opacity:1" fill="#6f5946" d="M 166.5,183.5 C 161.833,195.833 157.167,208.167 152.5,220.5C 151.18,222.463 149.846,224.463 148.5,226.5C 146.983,226.511 145.816,227.177 145,228.5C 142.217,232.951 139.05,237.117 135.5,241C 134.552,241.483 133.552,241.649 132.5,241.5C 133.095,237.462 133.762,233.462 134.5,229.5C 137.381,225.58 139.714,221.246 141.5,216.5C 141.069,215.707 140.735,214.873 140.5,214C 146.392,201.639 153.392,189.972 161.5,179C 164.102,178.117 166.269,176.617 168,174.5C 167.903,177.296 167.07,179.963 165.5,182.5C 165.624,183.107 165.957,183.44 166.5,183.5 Z"/></g>
<g><path style="opacity:1" fill="#b18d6e" d="M 342.5,192.5 C 343.833,193.833 345.167,195.167 346.5,196.5C 347.5,199.167 348.5,201.833 349.5,204.5C 348.334,221.805 346.001,238.805 342.5,255.5C 340.869,251.879 338.535,248.879 335.5,246.5C 336.496,246.586 337.329,246.252 338,245.5C 338.653,242.782 339.487,240.116 340.5,237.5C 341.696,227.544 343.363,217.71 345.5,208C 345.124,202.946 344.124,197.779 342.5,192.5 Z"/></g>
<g><path style="opacity:0.478" fill="#8e8b89" d="M 358.5,203.5 C 360.118,206.171 360.785,209.171 360.5,212.5C 359.343,209.727 358.676,206.727 358.5,203.5 Z"/></g>
<g><path style="opacity:1" fill="#625246" d="M 196.5,220.5 C 212.285,222.449 227.285,226.783 241.5,233.5C 241.813,236.837 240.48,239.171 237.5,240.5C 227.3,238.431 217.3,235.764 207.5,232.5C 197.461,229.962 187.461,229.962 177.5,232.5C 176.527,230.932 176.36,229.265 177,227.5C 178.667,226.267 180.167,224.933 181.5,223.5C 186.256,221.395 191.256,220.395 196.5,220.5 Z"/></g>
<g><path style="opacity:1" fill="#b39070" d="M 152.5,220.5 C 152.648,228.756 152.981,236.589 153.5,244C 152.5,249 151.5,254 150.5,259C 150.833,259.333 151.167,259.667 151.5,260C 149.606,261.079 149.273,262.413 150.5,264C 146.58,276.763 145.413,289.93 147,303.5C 148.481,313.061 150.815,322.394 154,331.5C 160.59,345.016 166.924,358.683 173,372.5C 176.365,376.693 179.865,380.693 183.5,384.5C 192.663,400.494 204.996,413.327 220.5,423C 224.824,423.582 229.157,424.082 233.5,424.5C 239.505,423.499 245.505,422.499 251.5,421.5C 251.167,422.167 250.833,422.833 250.5,423.5C 245.321,425.039 239.988,426.039 234.5,426.5C 229.324,426.698 224.324,425.864 219.5,424C 215.131,421.661 210.798,419.328 206.5,417C 194.029,402.525 181.529,388.025 169,373.5C 164.63,365.26 160.13,357.093 155.5,349C 149.181,335.849 145.014,322.016 143,307.5C 140.417,299.328 137.917,291.161 135.5,283C 136.582,281.67 137.249,280.17 137.5,278.5C 139.897,264.221 142.064,249.888 144,235.5C 145.527,232.447 147.027,229.447 148.5,226.5C 149.846,224.463 151.18,222.463 152.5,220.5 Z"/></g>
<g><path style="opacity:0.243" fill="#c2c0be" d="M 360.5,212.5 C 361.156,213.622 361.489,214.955 361.5,216.5C 361.066,221.678 360.399,226.678 359.5,231.5C 359.476,225.143 359.81,218.81 360.5,212.5 Z"/></g>
<g><path style="opacity:0.306" fill="#b2afac" d="M 359.5,231.5 C 359.638,236.414 358.972,241.081 357.5,245.5C 357.532,240.609 358.199,235.943 359.5,231.5 Z"/></g>
<g><path style="opacity:1" fill="#cfad8f" d="M 207.5,232.5 C 217.3,235.764 227.3,238.431 237.5,240.5C 236.737,241.268 235.737,241.768 234.5,242C 244.26,244.389 248.927,250.389 248.5,260C 246.682,268.29 244.349,276.457 241.5,284.5C 239.171,288.252 235.837,289.418 231.5,288C 230.748,287.329 230.414,286.496 230.5,285.5C 232.142,283.919 234.142,283.253 236.5,283.5C 237.833,276.159 239.167,268.825 240.5,261.5C 239.328,252.498 234.162,247.831 225,247.5C 216.517,248.227 208.017,248.727 199.5,249C 197.942,249.21 196.609,249.71 195.5,250.5C 194.167,250.5 192.833,250.5 191.5,250.5C 195.103,248.36 198.77,246.193 202.5,244C 202.167,243.667 201.833,243.333 201.5,243C 204.126,240.677 206.793,238.343 209.5,236C 206.833,235.333 206.833,234.667 209.5,234C 208.584,233.722 207.918,233.222 207.5,232.5 Z"/></g>
<g><path style="opacity:1" fill="#8b7059" d="M 148.5,226.5 C 147.027,229.447 145.527,232.447 144,235.5C 142.064,249.888 139.897,264.221 137.5,278.5C 135.958,279.301 134.292,279.634 132.5,279.5C 131.028,277.883 130.361,275.883 130.5,273.5C 131.227,266.84 131.893,260.173 132.5,253.5C 132.444,251.36 131.777,249.694 130.5,248.5C 130.5,247.167 130.5,245.833 130.5,244.5C 130.194,241.615 130.527,238.948 131.5,236.5C 131.335,239.518 131.502,242.518 132,245.5C 132.49,244.207 132.657,242.873 132.5,241.5C 133.552,241.649 134.552,241.483 135.5,241C 139.05,237.117 142.217,232.951 145,228.5C 145.816,227.177 146.983,226.511 148.5,226.5 Z"/></g>
<g><path style="opacity:1" fill="#544438" d="M 296.5,242.5 C 304.174,242.334 311.841,242.5 319.5,243C 325.114,243.046 330.447,244.213 335.5,246.5C 338.535,248.879 340.869,251.879 342.5,255.5C 342.5,257.167 342.5,258.833 342.5,260.5C 340.486,260.608 338.82,259.942 337.5,258.5C 333.489,255.249 328.823,253.415 323.5,253C 314.526,252.001 305.526,251.335 296.5,251C 294.984,249.103 294.317,246.936 294.5,244.5C 294.833,243.5 295.5,242.833 296.5,242.5 Z"/></g>
<g><path style="opacity:1" fill="#dbba9b" d="M 284.5,175.5 C 286.806,175.993 289.139,176.326 291.5,176.5C 291.833,176.5 292.167,176.5 292.5,176.5C 297.616,177.806 302.949,178.473 308.5,178.5C 311.33,179.735 314.33,180.735 317.5,181.5C 317.343,182.873 317.51,184.207 318,185.5C 322.526,190.426 324.36,196.259 323.5,203C 323.401,206.692 323.067,210.359 322.5,214C 321.436,219.004 319.436,223.838 316.5,228.5C 313.639,228.513 312.639,229.679 313.5,232C 312.333,233.167 311.167,234.333 310,235.5C 309.667,235.167 309.333,234.833 309,234.5C 299.422,237.562 289.922,241.062 280.5,245C 275.436,248.733 271.436,253.399 268.5,259C 268.833,259.333 269.167,259.667 269.5,260C 267.458,276.016 266.125,292.182 265.5,308.5C 258.587,309.827 251.587,310.66 244.5,311C 242.131,311.536 240.131,312.703 238.5,314.5C 236.464,318.044 234.631,321.711 233,325.5C 232.333,329.167 232.333,332.833 233,336.5C 233.74,338.319 234.907,339.652 236.5,340.5C 238.833,341.833 241.167,343.167 243.5,344.5C 245.674,346.081 248.007,347.581 250.5,349C 252.134,349.494 253.801,349.66 255.5,349.5C 255.918,350.222 256.584,350.722 257.5,351C 261.152,351.499 264.818,351.665 268.5,351.5C 268.993,353.806 269.326,356.139 269.5,358.5C 264.213,359.342 258.88,359.676 253.5,359.5C 248.59,359.077 243.923,358.077 239.5,356.5C 245.13,357.292 250.797,357.625 256.5,357.5C 256.167,355.5 255.833,353.5 255.5,351.5C 244.95,349.974 235.783,345.641 228,338.5C 227.47,333.343 228.137,328.343 230,323.5C 234.419,318.856 238.252,313.689 241.5,308C 243.433,307.749 245.266,307.249 247,306.5C 248.583,306.493 250.249,306.826 252,307.5C 255.42,306.818 258.754,305.818 262,304.5C 263.124,295.69 263.957,286.856 264.5,278C 264.373,273.885 262.706,270.552 259.5,268C 253.518,267.619 249.685,270.452 248,276.5C 247.399,284.717 243.899,291.217 237.5,296C 232.357,298.851 229.024,297.518 227.5,292C 226.552,291.517 225.552,291.351 224.5,291.5C 226.833,289.833 228.833,287.833 230.5,285.5C 230.414,286.496 230.748,287.329 231.5,288C 235.837,289.418 239.171,288.252 241.5,284.5C 244.349,276.457 246.682,268.29 248.5,260C 248.927,250.389 244.26,244.389 234.5,242C 235.737,241.768 236.737,241.268 237.5,240.5C 240.48,239.171 241.813,236.837 241.5,233.5C 242.712,234.23 243.712,235.23 244.5,236.5C 249.276,238.365 253.776,240.698 258,243.5C 262.778,243.191 267.945,242.024 273.5,240C 285.216,230.915 296.05,221.415 306,211.5C 306.635,210.034 307.469,208.7 308.5,207.5C 308.167,206.833 307.833,206.167 307.5,205.5C 309.416,202.106 309.416,198.94 307.5,196C 308.458,194.853 308.125,193.853 306.5,193C 306.042,188.444 303.708,184.11 299.5,180C 294.236,178.926 289.236,177.426 284.5,175.5 Z"/></g>
<g><path style="opacity:1" fill="#bb997a" d="M 230.5,285.5 C 230.5,283.167 230.5,280.833 230.5,278.5C 231.222,278.918 231.722,279.584 232,280.5C 232.61,276.764 232.277,273.097 231,269.5C 222.937,256.217 211.103,249.884 195.5,250.5C 196.609,249.71 197.942,249.21 199.5,249C 208.017,248.727 216.517,248.227 225,247.5C 234.162,247.831 239.328,252.498 240.5,261.5C 239.167,268.825 237.833,276.159 236.5,283.5C 234.142,283.253 232.142,283.919 230.5,285.5 Z"/></g>
<g><path style="opacity:1" fill="#1e1a17" d="M 191.5,250.5 C 192.833,250.5 194.167,250.5 195.5,250.5C 211.103,249.884 222.937,256.217 231,269.5C 232.277,273.097 232.61,276.764 232,280.5C 231.722,279.584 231.222,278.918 230.5,278.5C 228.216,265.38 220.549,257.213 207.5,254C 192.295,250.61 180.628,255.443 172.5,268.5C 171.753,263.945 173.42,260.112 177.5,257C 181.602,253.639 186.269,251.473 191.5,250.5 Z"/></g>
<g><path style="opacity:1" fill="#debea1" d="M 130.5,244.5 C 130.5,245.833 130.5,247.167 130.5,248.5C 130.637,255.214 130.137,261.88 129,268.5C 127.989,269.337 126.822,269.67 125.5,269.5C 124.492,265.308 122.992,261.308 121,257.5C 119.871,255.859 118.371,254.859 116.5,254.5C 115.685,253.163 114.518,252.163 113,251.5C 111.388,254.859 109.888,258.192 108.5,261.5C 108.68,253.007 112.68,247.34 120.5,244.5C 123.947,245.639 126.781,247.639 129,250.5C 129.191,248.292 129.691,246.292 130.5,244.5 Z"/></g>
<g><path style="opacity:1" fill="#be9c7c" d="M 294.5,244.5 C 294.317,246.936 294.984,249.103 296.5,251C 305.526,251.335 314.526,252.001 323.5,253C 328.823,253.415 333.489,255.249 337.5,258.5C 338.523,268.571 338.69,278.905 338,289.5C 336.982,290.706 336.482,290.373 336.5,288.5C 337.228,286.845 337.395,285.179 337,283.5C 336.329,284.252 335.496,284.586 334.5,284.5C 330.15,276.492 323.483,271.492 314.5,269.5C 314.5,269.167 314.5,268.833 314.5,268.5C 312.333,266.489 309.666,265.322 306.5,265C 303.523,259.18 298.856,257.18 292.5,259C 286.156,260.421 281.323,263.921 278,269.5C 275.582,274.138 273.915,279.138 273,284.5C 272.176,287.882 272.343,291.216 273.5,294.5C 274.548,295.383 275.715,296.05 277,296.5C 278.03,296.164 278.53,295.497 278.5,294.5C 278.328,293.508 278.662,292.842 279.5,292.5C 279.5,294.167 279.5,295.833 279.5,297.5C 279.662,299.527 279.495,301.527 279,303.5C 278.586,303.957 278.086,304.291 277.5,304.5C 269.818,300.891 267.318,294.891 270,286.5C 271,281.5 272,276.5 273,271.5C 274.763,265.308 277.596,259.642 281.5,254.5C 285.178,252.052 289.178,250.385 293.5,249.5C 293.216,247.585 293.549,245.919 294.5,244.5 Z"/></g>
<g><path style="opacity:1" fill="#382b20" d="M 212.5,289.5 C 212.062,289.565 211.728,289.399 211.5,289C 212.381,288.292 213.047,287.458 213.5,286.5C 216.16,284.174 217.493,281.174 217.5,277.5C 216.753,273.699 215.753,270.033 214.5,266.5C 211.881,260.513 207.214,257.513 200.5,257.5C 187.37,259.785 181.87,267.452 184,280.5C 184.383,281.056 184.883,281.389 185.5,281.5C 186.096,283.398 186.096,285.065 185.5,286.5C 185.167,285.5 184.5,284.833 183.5,284.5C 178.26,272.156 181.594,262.989 193.5,257C 213.038,254.867 221.204,263.367 218,282.5C 217.065,285.595 215.231,287.929 212.5,289.5 Z"/></g>
<g><path style="opacity:1" fill="#ab8869" d="M 314.5,268.5 C 308.952,267.04 303.286,266.206 297.5,266C 296.663,264.989 296.33,263.822 296.5,262.5C 289.235,262.104 283.902,265.104 280.5,271.5C 278.649,276.348 276.982,281.181 275.5,286C 275.393,289.335 276.393,292.168 278.5,294.5C 278.53,295.497 278.03,296.164 277,296.5C 275.715,296.05 274.548,295.383 273.5,294.5C 272.343,291.216 272.176,287.882 273,284.5C 273.915,279.138 275.582,274.138 278,269.5C 281.323,263.921 286.156,260.421 292.5,259C 298.856,257.18 303.523,259.18 306.5,265C 309.666,265.322 312.333,266.489 314.5,268.5 Z"/></g>
<g><path style="opacity:1" fill="#624b29" d="M 214.5,266.5 C 215.753,270.033 216.753,273.699 217.5,277.5C 217.493,281.174 216.16,284.174 213.5,286.5C 213.785,284.712 213.452,283.045 212.5,281.5C 211.395,283.611 209.729,284.945 207.5,285.5C 214.13,278.665 214.13,271.832 207.5,265C 204.266,262.624 200.933,262.124 197.5,263.5C 196.292,262.766 194.959,262.433 193.5,262.5C 193.577,261.25 194.244,260.417 195.5,260C 198.833,259.333 202.167,259.333 205.5,260C 208.397,262.41 211.397,264.577 214.5,266.5 Z"/></g>
<g><path style="opacity:1" fill="#070604" d="M 197.5,263.5 C 200.933,262.124 204.266,262.624 207.5,265C 214.13,271.832 214.13,278.665 207.5,285.5C 206.167,285.833 204.833,286.167 203.5,286.5C 194.387,287.726 189.387,283.726 188.5,274.5C 188.361,272.117 189.028,270.117 190.5,268.5C 196.579,271.741 198.913,270.075 197.5,263.5 Z"/></g>
<g><path style="opacity:1" fill="#1c1714" d="M 314.5,269.5 C 323.483,271.492 330.15,276.492 334.5,284.5C 335.344,288.099 335.677,291.766 335.5,295.5C 335.44,296.043 335.107,296.376 334.5,296.5C 334.077,292.386 332.744,288.72 330.5,285.5C 321.613,272.603 309.613,268.603 294.5,273.5C 296.667,271.489 299.334,270.322 302.5,270C 306.486,269.501 310.486,269.334 314.5,269.5 Z"/></g>
<g><path style="opacity:1" fill="#5d4625" d="M 190.5,264.5 C 190.5,265.833 190.5,267.167 190.5,268.5C 189.028,270.117 188.361,272.117 188.5,274.5C 189.387,283.726 194.387,287.726 203.5,286.5C 200.437,287.201 197.27,287.868 194,288.5C 192.16,287.167 191.66,287.334 192.5,289C 191.906,289.464 191.239,289.631 190.5,289.5C 188.632,288.737 186.965,287.737 185.5,286.5C 186.096,285.065 186.096,283.398 185.5,281.5C 185.175,276.401 185.675,271.401 187,266.5C 188.113,265.695 189.279,265.028 190.5,264.5 Z"/></g>
<g><path style="opacity:1" fill="#9b795b" d="M 314.5,268.5 C 314.5,268.833 314.5,269.167 314.5,269.5C 310.486,269.334 306.486,269.501 302.5,270C 299.334,270.322 296.667,271.489 294.5,273.5C 289.951,274.759 286.618,277.426 284.5,281.5C 282.391,284.95 280.724,288.616 279.5,292.5C 278.662,292.842 278.328,293.508 278.5,294.5C 276.393,292.168 275.393,289.335 275.5,286C 276.982,281.181 278.649,276.348 280.5,271.5C 283.902,265.104 289.235,262.104 296.5,262.5C 296.33,263.822 296.663,264.989 297.5,266C 303.286,266.206 308.952,267.04 314.5,268.5 Z"/></g>
<g><path style="opacity:1" fill="#30251c" d="M 319.5,295.5 C 317.749,278.784 308.749,272.784 292.5,277.5C 292.833,276.833 293.167,276.167 293.5,275.5C 304.631,271.265 313.131,274.265 319,284.5C 319.499,288.152 319.665,291.818 319.5,295.5 Z"/></g>
<g><path style="opacity:1" fill="#b08d6d" d="M 130.5,248.5 C 131.777,249.694 132.444,251.36 132.5,253.5C 131.893,260.173 131.227,266.84 130.5,273.5C 130.361,275.883 131.028,277.883 132.5,279.5C 131.003,289.422 130.17,299.422 130,309.5C 128.955,310.373 128.122,311.373 127.5,312.5C 126.167,312.5 124.833,312.5 123.5,312.5C 124.748,309.262 125.415,305.762 125.5,302C 124.896,291.77 123.729,281.603 122,271.5C 120.447,266.384 117.447,262.384 113,259.5C 112.506,257.866 112.34,256.199 112.5,254.5C 113.833,254.5 115.167,254.5 116.5,254.5C 118.371,254.859 119.871,255.859 121,257.5C 122.992,261.308 124.492,265.308 125.5,269.5C 126.822,269.67 127.989,269.337 129,268.5C 130.137,261.88 130.637,255.214 130.5,248.5 Z"/></g>
<g><path style="opacity:1" fill="#e8e8e7" d="M 230.5,278.5 C 230.5,280.833 230.5,283.167 230.5,285.5C 228.833,287.833 226.833,289.833 224.5,291.5C 222.287,291.848 220.287,292.681 218.5,294C 214.311,294.812 210.311,294.645 206.5,293.5C 208.81,292.675 210.81,291.342 212.5,289.5C 215.231,287.929 217.065,285.595 218,282.5C 221.204,263.367 213.038,254.867 193.5,257C 181.594,262.989 178.26,272.156 183.5,284.5C 181.246,283.585 179.246,282.252 177.5,280.5C 175.86,277.851 174.193,275.184 172.5,272.5C 172.5,271.167 172.5,269.833 172.5,268.5C 180.628,255.443 192.295,250.61 207.5,254C 220.549,257.213 228.216,265.38 230.5,278.5 Z"/></g>
<g><path style="opacity:1" fill="#3e2b12" d="M 214.5,266.5 C 211.397,264.577 208.397,262.41 205.5,260C 202.167,259.333 198.833,259.333 195.5,260C 194.244,260.417 193.577,261.25 193.5,262.5C 191.973,262.427 190.973,263.094 190.5,264.5C 189.279,265.028 188.113,265.695 187,266.5C 185.675,271.401 185.175,276.401 185.5,281.5C 184.883,281.389 184.383,281.056 184,280.5C 181.87,267.452 187.37,259.785 200.5,257.5C 207.214,257.513 211.881,260.513 214.5,266.5 Z"/></g>
<g><path style="opacity:1" fill="#ecebe9" d="M 193.5,262.5 C 194.959,262.433 196.292,262.766 197.5,263.5C 198.913,270.075 196.579,271.741 190.5,268.5C 190.5,267.167 190.5,265.833 190.5,264.5C 190.973,263.094 191.973,262.427 193.5,262.5 Z"/></g>
<g><path style="opacity:1" fill="#ebcbaf" d="M 239.5,356.5 C 227.89,354.098 216.556,350.764 205.5,346.5C 209.38,335.92 205.713,330.92 194.5,331.5C 188.5,332.345 182.5,332.845 176.5,333C 163.673,323.896 159.673,311.73 164.5,296.5C 166.099,296.768 167.432,296.434 168.5,295.5C 170.432,294.024 170.765,292.357 169.5,290.5C 169.912,285.265 169.912,279.931 169.5,274.5C 170.005,273.081 171.005,272.415 172.5,272.5C 174.193,275.184 175.86,277.851 177.5,280.5C 177.83,284.105 177.163,287.939 175.5,292C 176.167,294 176.833,296 177.5,298C 177.167,299.667 176.833,301.333 176.5,303C 177.167,304.667 177.833,306.333 178.5,308C 177.308,311.948 177.308,315.948 178.5,320C 179.022,320.95 179.689,321.784 180.5,322.5C 191.411,324.138 202.411,325.304 213.5,326C 215.419,327.934 216.919,327.767 218,325.5C 223.377,325.303 226.543,322.303 227.5,316.5C 227.21,314.956 226.544,313.623 225.5,312.5C 219.936,311.266 214.436,309.932 209,308.5C 204.887,308.757 201.72,306.923 199.5,303C 200.071,301.795 200.738,300.628 201.5,299.5C 203.098,300.485 204.765,300.651 206.5,300C 206.868,298.527 206.368,297.027 205,295.5C 203.698,294.915 202.531,294.249 201.5,293.5C 203.167,293.5 204.833,293.5 206.5,293.5C 210.311,294.645 214.311,294.812 218.5,294C 220.287,292.681 222.287,291.848 224.5,291.5C 225.552,291.351 226.552,291.517 227.5,292C 229.024,297.518 232.357,298.851 237.5,296C 243.899,291.217 247.399,284.717 248,276.5C 249.685,270.452 253.518,267.619 259.5,268C 262.706,270.552 264.373,273.885 264.5,278C 263.957,286.856 263.124,295.69 262,304.5C 258.754,305.818 255.42,306.818 252,307.5C 250.249,306.826 248.583,306.493 247,306.5C 245.266,307.249 243.433,307.749 241.5,308C 238.252,313.689 234.419,318.856 230,323.5C 228.137,328.343 227.47,333.343 228,338.5C 235.783,345.641 244.95,349.974 255.5,351.5C 255.833,353.5 256.167,355.5 256.5,357.5C 250.797,357.625 245.13,357.292 239.5,356.5 Z"/></g>
<g><path style="opacity:1" fill="#625c58" d="M 294.5,273.5 C 294.167,274.167 293.833,274.833 293.5,275.5C 293.167,276.167 292.833,276.833 292.5,277.5C 290.938,277.733 289.605,278.4 288.5,279.5C 288.565,279.062 288.399,278.728 288,278.5C 286.961,279.71 285.794,280.71 284.5,281.5C 286.618,277.426 289.951,274.759 294.5,273.5 Z"/></g>
<g><path style="opacity:1" fill="#f1d3b8" d="M 177.5,280.5 C 179.246,282.252 181.246,283.585 183.5,284.5C 184.5,284.833 185.167,285.5 185.5,286.5C 186.965,287.737 188.632,288.737 190.5,289.5C 193.827,291.575 197.494,292.909 201.5,293.5C 202.531,294.249 203.698,294.915 205,295.5C 206.368,297.027 206.868,298.527 206.5,300C 204.765,300.651 203.098,300.485 201.5,299.5C 200.738,300.628 200.071,301.795 199.5,303C 201.72,306.923 204.887,308.757 209,308.5C 214.436,309.932 219.936,311.266 225.5,312.5C 226.544,313.623 227.21,314.956 227.5,316.5C 226.543,322.303 223.377,325.303 218,325.5C 216.919,327.767 215.419,327.934 213.5,326C 202.411,325.304 191.411,324.138 180.5,322.5C 179.689,321.784 179.022,320.95 178.5,320C 177.308,315.948 177.308,311.948 178.5,308C 177.833,306.333 177.167,304.667 176.5,303C 176.833,301.333 177.167,299.667 177.5,298C 176.833,296 176.167,294 175.5,292C 177.163,287.939 177.83,284.105 177.5,280.5 Z"/></g>
<g><path style="opacity:1" fill="#332820" d="M 292.5,277.5 C 286.447,282.827 284.28,289.493 286,297.5C 286.697,299.584 287.864,301.251 289.5,302.5C 290.625,303.652 290.625,304.652 289.5,305.5C 289.167,305.5 288.833,305.5 288.5,305.5C 288.068,304.29 287.401,303.29 286.5,302.5C 281.898,294.271 282.564,286.604 288.5,279.5C 289.605,278.4 290.938,277.733 292.5,277.5 Z"/></g>
<g><path style="opacity:1" fill="#060503" d="M 312.5,295.5 C 311.89,296.391 311.557,297.391 311.5,298.5C 309.142,300.678 306.475,302.345 303.5,303.5C 296.739,304.08 292.405,301.08 290.5,294.5C 289.964,291.302 290.631,288.635 292.5,286.5C 297.271,288.406 299.604,286.74 299.5,281.5C 309.807,280.148 314.141,284.814 312.5,295.5 Z"/></g>
<g><path style="opacity:1" fill="#e3e2e2" d="M 330.5,285.5 C 331.908,289.686 332.575,294.019 332.5,298.5C 329.149,301.848 325.482,304.848 321.5,307.5C 317.616,308.793 313.616,309.459 309.5,309.5C 311.36,308.061 313.027,306.395 314.5,304.5C 316.543,303.421 317.876,301.754 318.5,299.5C 318.833,298.167 319.167,296.833 319.5,295.5C 319.665,291.818 319.499,288.152 319,284.5C 313.131,274.265 304.631,271.265 293.5,275.5C 293.833,274.833 294.167,274.167 294.5,273.5C 309.613,268.603 321.613,272.603 330.5,285.5 Z"/></g>
<g><path style="opacity:1" fill="#4a3619" d="M 319.5,295.5 C 319.167,296.833 318.833,298.167 318.5,299.5C 317.874,295.239 317.041,290.906 316,286.5C 315.333,287.833 314.667,287.833 314,286.5C 313.819,289.695 313.319,292.695 312.5,295.5C 314.141,284.814 309.807,280.148 299.5,281.5C 295.903,278.571 293.236,279.405 291.5,284C 291.743,284.902 292.077,285.735 292.5,286.5C 290.631,288.635 289.964,291.302 290.5,294.5C 289.686,292.369 289.186,290.036 289,287.5C 287.033,292.568 287.2,297.568 289.5,302.5C 287.864,301.251 286.697,299.584 286,297.5C 284.28,289.493 286.447,282.827 292.5,277.5C 308.749,272.784 317.749,278.784 319.5,295.5 Z"/></g>
<g><path style="opacity:1" fill="#e8e7e5" d="M 299.5,281.5 C 299.604,286.74 297.271,288.406 292.5,286.5C 292.077,285.735 291.743,284.902 291.5,284C 293.236,279.405 295.903,278.571 299.5,281.5 Z"/></g>
<g><path style="opacity:1" fill="#dcbc9f" d="M 108.5,261.5 C 108.334,269.507 108.5,277.507 109,285.5C 109.17,279.472 109.67,273.472 110.5,267.5C 112.185,266.491 113.518,266.991 114.5,269C 115.333,275.489 116.166,281.989 117,288.5C 120.398,295.419 122.565,302.752 123.5,310.5C 119.975,310.654 117.141,309.321 115,306.5C 113.091,302.685 111.758,298.685 111,294.5C 111.158,299.172 111.658,303.839 112.5,308.5C 109.815,303.279 108.315,297.613 108,291.5C 107.175,281.325 107.342,271.325 108.5,261.5 Z"/></g>
<g><path style="opacity:1" fill="#c2a489" d="M 349.5,279.5 C 349.67,280.822 349.337,281.989 348.5,283C 354.482,287.435 355.816,292.935 352.5,299.5C 352.665,296.15 352.498,292.817 352,289.5C 351.099,292.071 349.766,294.404 348,296.5C 347.31,297.738 346.81,297.738 346.5,296.5C 347.08,292.19 347.414,287.857 347.5,283.5C 347.5,282.833 347.5,282.167 347.5,281.5C 348.167,280.833 348.833,280.167 349.5,279.5 Z"/></g>
<g><path style="opacity:1" fill="#65584c" d="M 169.5,290.5 C 170.765,292.357 170.432,294.024 168.5,295.5C 167.167,295.5 165.833,295.5 164.5,295.5C 163.833,291.5 165.5,289.833 169.5,290.5 Z"/></g>
<g><path style="opacity:1" fill="#927457" d="M 213.5,286.5 C 213.047,287.458 212.381,288.292 211.5,289C 211.728,289.399 212.062,289.565 212.5,289.5C 210.81,291.342 208.81,292.675 206.5,293.5C 204.833,293.5 203.167,293.5 201.5,293.5C 197.494,292.909 193.827,291.575 190.5,289.5C 191.239,289.631 191.906,289.464 192.5,289C 191.66,287.334 192.16,287.167 194,288.5C 197.27,287.868 200.437,287.201 203.5,286.5C 204.833,286.167 206.167,285.833 207.5,285.5C 209.729,284.945 211.395,283.611 212.5,281.5C 213.452,283.045 213.785,284.712 213.5,286.5 Z"/></g>
<g><path style="opacity:1" fill="#e8e7e6" d="M 288.5,279.5 C 282.564,286.604 281.898,294.271 286.5,302.5C 286.44,303.043 286.107,303.376 285.5,303.5C 284.148,302.476 282.815,301.476 281.5,300.5C 281.068,299.29 280.401,298.29 279.5,297.5C 279.5,295.833 279.5,294.167 279.5,292.5C 280.724,288.616 282.391,284.95 284.5,281.5C 285.794,280.71 286.961,279.71 288,278.5C 288.399,278.728 288.565,279.062 288.5,279.5 Z"/></g>
<g><path style="opacity:1" fill="#caa786" d="M 116.5,254.5 C 115.167,254.5 113.833,254.5 112.5,254.5C 112.34,256.199 112.506,257.866 113,259.5C 117.447,262.384 120.447,266.384 122,271.5C 123.729,281.603 124.896,291.77 125.5,302C 125.415,305.762 124.748,309.262 123.5,312.5C 121.694,313.024 120.028,313.691 118.5,314.5C 115.5,313.5 113.5,311.5 112.5,308.5C 111.658,303.839 111.158,299.172 111,294.5C 111.758,298.685 113.091,302.685 115,306.5C 117.141,309.321 119.975,310.654 123.5,310.5C 122.565,302.752 120.398,295.419 117,288.5C 116.166,281.989 115.333,275.489 114.5,269C 113.518,266.991 112.185,266.491 110.5,267.5C 109.67,273.472 109.17,279.472 109,285.5C 108.5,277.507 108.334,269.507 108.5,261.5C 109.888,258.192 111.388,254.859 113,251.5C 114.518,252.163 115.685,253.163 116.5,254.5 Z"/></g>
<g><path style="opacity:1" fill="#6f5639" d="M 318.5,299.5 C 317.876,301.754 316.543,303.421 314.5,304.5C 314.598,302.397 314.265,300.064 313.5,297.5C 312.817,297.863 312.15,298.196 311.5,298.5C 311.557,297.391 311.89,296.391 312.5,295.5C 313.319,292.695 313.819,289.695 314,286.5C 314.667,287.833 315.333,287.833 316,286.5C 317.041,290.906 317.874,295.239 318.5,299.5 Z"/></g>
<g><path style="opacity:1" fill="#4e3826" d="M 347.5,283.5 C 347.414,287.857 347.08,292.19 346.5,296.5C 345.698,297.952 345.198,299.618 345,301.5C 344.756,295.25 345.589,289.25 347.5,283.5 Z"/></g>
<g><path style="opacity:1" fill="#ceab8b" d="M 308.5,178.5 C 311.167,178.5 313.833,178.5 316.5,178.5C 320.479,178.742 324.146,179.742 327.5,181.5C 329.362,183.217 331.029,185.217 332.5,187.5C 333.759,194.016 334.426,200.183 334.5,206C 332.555,214.828 330.555,223.661 328.5,232.5C 328.833,233.167 329.167,233.833 329.5,234.5C 328.365,236.799 327.032,238.966 325.5,241C 325.833,241.333 326.167,241.667 326.5,242C 316.358,241.287 306.358,241.454 296.5,242.5C 295.5,242.833 294.833,243.5 294.5,244.5C 293.549,245.919 293.216,247.585 293.5,249.5C 289.178,250.385 285.178,252.052 281.5,254.5C 277.596,259.642 274.763,265.308 273,271.5C 272,276.5 271,281.5 270,286.5C 267.318,294.891 269.818,300.891 277.5,304.5C 278.086,304.291 278.586,303.957 279,303.5C 279.495,301.527 279.662,299.527 279.5,297.5C 280.401,298.29 281.068,299.29 281.5,300.5C 281.665,303.518 281.498,306.518 281,309.5C 277.099,310.232 275.265,312.566 275.5,316.5C 277.851,326.738 279.851,337.072 281.5,347.5C 283.413,348.373 285.247,349.373 287,350.5C 287.414,350.043 287.914,349.709 288.5,349.5C 291.959,350.304 295.459,350.971 299,351.5C 301.467,352.306 303.3,353.806 304.5,356C 304.18,357.653 303.18,358.653 301.5,359C 298.518,359.498 295.518,359.665 292.5,359.5C 279.567,360.599 266.567,360.599 253.5,359.5C 258.88,359.676 264.213,359.342 269.5,358.5C 269.326,356.139 268.993,353.806 268.5,351.5C 264.818,351.665 261.152,351.499 257.5,351C 256.584,350.722 255.918,350.222 255.5,349.5C 258.85,349.665 262.183,349.498 265.5,349C 268.226,346.704 271.226,344.871 274.5,343.5C 274.833,341.167 275.167,338.833 275.5,336.5C 275.685,332.859 275.019,329.526 273.5,326.5C 274.163,321.624 272.83,317.457 269.5,314C 268.552,313.517 267.552,313.351 266.5,313.5C 268.731,318.677 270.065,324.177 270.5,330C 270.333,331.167 270.167,332.333 270,333.5C 266.88,335.113 264.713,337.447 263.5,340.5C 260.15,340.665 256.817,340.498 253.5,340C 250.719,339.478 248.385,338.311 246.5,336.5C 251.844,336.666 257.177,336.499 262.5,336C 267.831,329.561 267.497,323.227 261.5,317C 257.738,314.844 253.738,314.177 249.5,315C 247.097,317.682 244.597,320.182 242,322.5C 241.19,326.69 241.69,330.69 243.5,334.5C 241,332.297 238.667,329.963 236.5,327.5C 235.46,331.818 235.46,336.151 236.5,340.5C 234.907,339.652 233.74,338.319 233,336.5C 232.333,332.833 232.333,329.167 233,325.5C 234.631,321.711 236.464,318.044 238.5,314.5C 240.131,312.703 242.131,311.536 244.5,311C 251.587,310.66 258.587,309.827 265.5,308.5C 266.125,292.182 267.458,276.016 269.5,260C 269.167,259.667 268.833,259.333 268.5,259C 271.436,253.399 275.436,248.733 280.5,245C 289.922,241.062 299.422,237.562 309,234.5C 309.333,234.833 309.667,235.167 310,235.5C 311.167,234.333 312.333,233.167 313.5,232C 312.639,229.679 313.639,228.513 316.5,228.5C 319.436,223.838 321.436,219.004 322.5,214C 323.067,210.359 323.401,206.692 323.5,203C 324.36,196.259 322.526,190.426 318,185.5C 317.51,184.207 317.343,182.873 317.5,181.5C 314.33,180.735 311.33,179.735 308.5,178.5 Z"/></g>
<g><path style="opacity:1" fill="#685032" d="M 290.5,294.5 C 292.405,301.08 296.739,304.08 303.5,303.5C 301.958,304.163 300.291,304.83 298.5,305.5C 301.433,307.738 301.099,308.738 297.5,308.5C 294.351,308.585 291.684,307.585 289.5,305.5C 290.625,304.652 290.625,303.652 289.5,302.5C 287.2,297.568 287.033,292.568 289,287.5C 289.186,290.036 289.686,292.369 290.5,294.5 Z"/></g>
<g><path style="opacity:1" fill="#9e7e60" d="M 314.5,304.5 C 313.027,306.395 311.36,308.061 309.5,309.5C 305.298,309.817 301.298,309.483 297.5,308.5C 301.099,308.738 301.433,307.738 298.5,305.5C 300.291,304.83 301.958,304.163 303.5,303.5C 306.475,302.345 309.142,300.678 311.5,298.5C 312.15,298.196 312.817,297.863 313.5,297.5C 314.265,300.064 314.598,302.397 314.5,304.5 Z"/></g>
<g><path style="opacity:1" fill="#c2a286" d="M 351.5,302.5 C 349.014,313.128 346.014,323.628 342.5,334C 341.467,337.895 339.801,341.395 337.5,344.5C 339.28,333.157 341.28,321.824 343.5,310.5C 345.101,307.876 346.768,305.21 348.5,302.5C 349.192,303.025 349.692,303.692 350,304.5C 350.278,303.584 350.778,302.918 351.5,302.5 Z"/></g>
<g><path style="opacity:1" fill="#d9b797" d="M 332.5,298.5 C 333.833,298.5 334.5,299.167 334.5,300.5C 332.164,302.004 330.331,304.004 329,306.5C 327.831,316.845 326.498,327.179 325,337.5C 323.738,340.757 321.738,343.423 319,345.5C 317.563,349.955 314.896,353.622 311,356.5C 308.992,362.37 306.492,368.37 303.5,374.5C 299.133,380.497 294.133,385.83 288.5,390.5C 285.897,391.562 283.23,391.728 280.5,391C 279.978,390.439 279.645,389.772 279.5,389C 280.587,385.326 282.087,381.826 284,378.5C 284.494,376.866 284.66,375.199 284.5,373.5C 287.016,370.466 289.016,367.132 290.5,363.5C 291.6,362.395 292.267,361.062 292.5,359.5C 295.518,359.665 298.518,359.498 301.5,359C 303.18,358.653 304.18,357.653 304.5,356C 303.3,353.806 301.467,352.306 299,351.5C 295.459,350.971 291.959,350.304 288.5,349.5C 287.914,349.709 287.414,350.043 287,350.5C 285.247,349.373 283.413,348.373 281.5,347.5C 279.851,337.072 277.851,326.738 275.5,316.5C 275.265,312.566 277.099,310.232 281,309.5C 281.498,306.518 281.665,303.518 281.5,300.5C 282.815,301.476 284.148,302.476 285.5,303.5C 286.107,303.376 286.44,303.043 286.5,302.5C 287.401,303.29 288.068,304.29 288.5,305.5C 287.761,305.369 287.094,305.536 286.5,306C 288.018,310.086 289.685,314.086 291.5,318C 289.462,320.569 287.796,323.402 286.5,326.5C 287.407,331.689 289.574,336.689 293,341.5C 298.497,346.229 303.997,345.896 309.5,340.5C 311.411,332.418 314.911,325.085 320,318.5C 320.633,314.791 321.8,311.291 323.5,308C 322.906,307.536 322.239,307.369 321.5,307.5C 325.482,304.848 329.149,301.848 332.5,298.5 Z"/></g>
<g><path style="opacity:1" fill="#dab99a" d="M 207.5,232.5 C 207.918,233.222 208.584,233.722 209.5,234C 206.833,234.667 206.833,235.333 209.5,236C 206.793,238.343 204.126,240.677 201.5,243C 201.833,243.333 202.167,243.667 202.5,244C 198.77,246.193 195.103,248.36 191.5,250.5C 186.269,251.473 181.602,253.639 177.5,257C 173.42,260.112 171.753,263.945 172.5,268.5C 172.5,269.833 172.5,271.167 172.5,272.5C 171.005,272.415 170.005,273.081 169.5,274.5C 169.912,279.931 169.912,285.265 169.5,290.5C 165.5,289.833 163.833,291.5 164.5,295.5C 165.833,295.5 167.167,295.5 168.5,295.5C 167.432,296.434 166.099,296.768 164.5,296.5C 159.673,311.73 163.673,323.896 176.5,333C 182.5,332.845 188.5,332.345 194.5,331.5C 205.713,330.92 209.38,335.92 205.5,346.5C 204.833,346.5 204.167,346.5 203.5,346.5C 202.41,345.143 201.076,344.143 199.5,343.5C 199.082,342.778 198.416,342.278 197.5,342C 197.957,341.586 198.291,341.086 198.5,340.5C 197.349,339.269 196.183,339.269 195,340.5C 194.667,339.833 194.333,339.167 194,338.5C 193.506,340.134 193.34,341.801 193.5,343.5C 195.179,343.285 196.179,343.952 196.5,345.5C 192.331,348.345 187.997,351.012 183.5,353.5C 182.554,360.126 183.721,366.459 187,372.5C 194.207,379.523 202.374,385.189 211.5,389.5C 212.386,384.718 211.22,380.385 208,376.5C 206.519,372.554 205.353,368.554 204.5,364.5C 205.833,365.167 206.833,366.167 207.5,367.5C 208.177,371.375 210.01,374.708 213,377.5C 217.374,387.093 222.874,395.926 229.5,404C 228.391,404.638 227.225,405.138 226,405.5C 223.567,404.521 221.067,403.855 218.5,403.5C 218.762,402.022 218.429,400.689 217.5,399.5C 215.5,398.833 214.167,397.5 213.5,395.5C 205.349,389.589 197.016,383.923 188.5,378.5C 186.521,373.877 184.021,369.544 181,365.5C 179,360.167 177,354.833 175,349.5C 168.532,338.231 162.866,326.565 158,314.5C 157.324,309.115 156.824,303.949 156.5,299C 157.422,294.894 158.256,290.727 159,286.5C 163.377,272.505 167.21,258.672 170.5,245C 171.911,241.512 173.577,238.178 175.5,235C 174.588,233.375 175.255,232.541 177.5,232.5C 187.461,229.962 197.461,229.962 207.5,232.5 Z"/></g>
<g><path style="opacity:1" fill="#ba9777" d="M 330.5,285.5 C 332.744,288.72 334.077,292.386 334.5,296.5C 335.107,296.376 335.44,296.043 335.5,295.5C 336.222,295.082 336.722,294.416 337,293.5C 337.752,310.059 336.252,326.392 332.5,342.5C 323.687,358.833 312.687,373.666 299.5,387C 285.491,399.663 270.158,410.329 253.5,419C 252.619,419.708 251.953,420.542 251.5,421.5C 245.505,422.499 239.505,423.499 233.5,424.5C 229.157,424.082 224.824,423.582 220.5,423C 204.996,413.327 192.663,400.494 183.5,384.5C 189.114,391.122 194.781,397.789 200.5,404.5C 207.989,412.078 216.655,417.911 226.5,422C 233.492,423.26 240.159,422.426 246.5,419.5C 256.804,411.114 267.304,403.114 278,395.5C 280.147,396.476 282.314,396.309 284.5,395C 287.833,392.667 291.167,390.333 294.5,388C 309.301,373.519 321.468,357.019 331,338.5C 332.415,325.868 333.582,313.201 334.5,300.5C 334.5,299.167 333.833,298.5 332.5,298.5C 332.575,294.019 331.908,289.686 330.5,285.5 Z"/></g>
<g><path style="opacity:1" fill="#a98667" d="M 349.5,204.5 C 351.416,208.163 352.416,212.163 352.5,216.5C 349.838,248.104 346.005,279.437 341,310.5C 338.884,321.524 336.55,332.524 334,343.5C 331.651,348.198 329.318,352.864 327,357.5C 320.439,368.062 313.106,378.062 305,387.5C 293.456,397.38 281.622,406.88 269.5,416C 265.812,417.513 262.145,419.013 258.5,420.5C 255.833,421.5 253.167,422.5 250.5,423.5C 250.833,422.833 251.167,422.167 251.5,421.5C 251.953,420.542 252.619,419.708 253.5,419C 270.158,410.329 285.491,399.663 299.5,387C 312.687,373.666 323.687,358.833 332.5,342.5C 336.252,326.392 337.752,310.059 337,293.5C 336.722,294.416 336.222,295.082 335.5,295.5C 335.677,291.766 335.344,288.099 334.5,284.5C 335.496,284.586 336.329,284.252 337,283.5C 337.395,285.179 337.228,286.845 336.5,288.5C 336.482,290.373 336.982,290.706 338,289.5C 338.69,278.905 338.523,268.571 337.5,258.5C 338.82,259.942 340.486,260.608 342.5,260.5C 342.5,258.833 342.5,257.167 342.5,255.5C 346.001,238.805 348.334,221.805 349.5,204.5 Z"/></g>
<g><path style="opacity:1" fill="#977557" d="M 189.5,409.5 C 163.027,389.595 145.194,363.595 136,331.5C 134.194,326.554 131.861,321.888 129,317.5C 125.534,316.059 122.034,315.059 118.5,314.5C 120.028,313.691 121.694,313.024 123.5,312.5C 124.833,312.5 126.167,312.5 127.5,312.5C 129.144,312.714 130.644,312.38 132,311.5C 132.333,306.833 132.667,302.167 133,297.5C 137.995,312.484 142.995,327.484 148,342.5C 150.793,351.792 155.793,359.459 163,365.5C 163.36,367.608 164.027,369.608 165,371.5C 168.095,374.692 170.428,378.359 172,382.5C 180.205,391.036 188.038,399.869 195.5,409C 193.527,409.495 191.527,409.662 189.5,409.5 Z"/></g>
<g><path style="opacity:1" fill="#977557" d="M 352.5,216.5 C 353.659,227.993 353.826,239.659 353,251.5C 351.103,261.487 349.269,271.487 347.5,281.5C 347.5,282.167 347.5,282.833 347.5,283.5C 345.589,289.25 344.756,295.25 345,301.5C 345.198,299.618 345.698,297.952 346.5,296.5C 346.81,297.738 347.31,297.738 348,296.5C 349.766,294.404 351.099,292.071 352,289.5C 352.498,292.817 352.665,296.15 352.5,299.5C 352.737,300.791 352.404,301.791 351.5,302.5C 350.778,302.918 350.278,303.584 350,304.5C 349.692,303.692 349.192,303.025 348.5,302.5C 346.768,305.21 345.101,307.876 343.5,310.5C 341.28,321.824 339.28,333.157 337.5,344.5C 322.68,382.986 296.347,410.319 258.5,426.5C 253.656,427.975 252.323,427.975 254.5,426.5C 255.203,424.127 256.536,422.127 258.5,420.5C 262.145,419.013 265.812,417.513 269.5,416C 281.622,406.88 293.456,397.38 305,387.5C 313.106,378.062 320.439,368.062 327,357.5C 329.318,352.864 331.651,348.198 334,343.5C 336.55,332.524 338.884,321.524 341,310.5C 346.005,279.437 349.838,248.104 352.5,216.5 Z"/></g>
<g><path style="opacity:1" fill="#c5a281" d="M 167.5,182.5 C 167.914,184.808 168.247,187.142 168.5,189.5C 167.681,195.292 166.681,201.292 165.5,207.5C 165.741,216.408 165.741,225.241 165.5,234C 162.178,253.454 157.678,272.62 152,291.5C 151.35,298.938 152.016,306.271 154,313.5C 159.465,329.442 165.798,345.109 173,360.5C 181.522,374.21 191.022,387.21 201.5,399.5C 207.579,403.869 213.245,408.703 218.5,414C 224.599,418.596 231.266,419.596 238.5,417C 246.265,413.858 248.265,408.858 244.5,402C 245.736,400.144 245.736,398.311 244.5,396.5C 239.189,392.112 233.189,388.945 226.5,387C 222.213,383.224 218.546,379.057 215.5,374.5C 219.026,377.703 223.026,380.036 227.5,381.5C 234.084,385.817 241.417,387.984 249.5,388C 252.709,390.44 256.375,391.107 260.5,390C 264.116,388.513 267.783,387.18 271.5,386C 274.964,381.038 279.298,376.871 284.5,373.5C 284.66,375.199 284.494,376.866 284,378.5C 282.087,381.826 280.587,385.326 279.5,389C 279.645,389.772 279.978,390.439 280.5,391C 283.23,391.728 285.897,391.562 288.5,390.5C 294.133,385.83 299.133,380.497 303.5,374.5C 306.492,368.37 308.992,362.37 311,356.5C 314.896,353.622 317.563,349.955 319,345.5C 321.738,343.423 323.738,340.757 325,337.5C 326.498,327.179 327.831,316.845 329,306.5C 330.331,304.004 332.164,302.004 334.5,300.5C 333.582,313.201 332.415,325.868 331,338.5C 321.468,357.019 309.301,373.519 294.5,388C 291.167,390.333 287.833,392.667 284.5,395C 282.314,396.309 280.147,396.476 278,395.5C 267.304,403.114 256.804,411.114 246.5,419.5C 240.159,422.426 233.492,423.26 226.5,422C 216.655,417.911 207.989,412.078 200.5,404.5C 194.781,397.789 189.114,391.122 183.5,384.5C 179.865,380.693 176.365,376.693 173,372.5C 166.924,358.683 160.59,345.016 154,331.5C 150.815,322.394 148.481,313.061 147,303.5C 145.413,289.93 146.58,276.763 150.5,264C 149.273,262.413 149.606,261.079 151.5,260C 151.167,259.667 150.833,259.333 150.5,259C 151.5,254 152.5,249 153.5,244C 152.981,236.589 152.648,228.756 152.5,220.5C 157.167,208.167 161.833,195.833 166.5,183.5C 166.5,182.833 166.833,182.5 167.5,182.5 Z"/></g>
<g><path style="opacity:1" fill="#b1866e" d="M 201.5,355.5 C 202.167,355.833 202.833,356.167 203.5,356.5C 204.833,358.5 206.5,360.167 208.5,361.5C 216.046,367.442 224.379,371.442 233.5,373.5C 232.448,373.351 231.448,373.517 230.5,374C 241.379,378.397 252.379,379.23 263.5,376.5C 266.01,376.073 268.343,375.407 270.5,374.5C 273.443,374.02 276.11,373.02 278.5,371.5C 282.612,369.781 285.945,367.114 288.5,363.5C 289.167,363.5 289.833,363.5 290.5,363.5C 289.016,367.132 287.016,370.466 284.5,373.5C 279.298,376.871 274.964,381.038 271.5,386C 267.783,387.18 264.116,388.513 260.5,390C 256.375,391.107 252.709,390.44 249.5,388C 241.417,387.984 234.084,385.817 227.5,381.5C 233.06,383.68 238.893,385.013 245,385.5C 248.496,385.735 251.663,384.902 254.5,383C 245.139,380.882 235.805,378.549 226.5,376C 220.18,371.769 213.847,367.435 207.5,363C 204.882,360.894 202.882,358.394 201.5,355.5 Z"/></g>
<g><path style="opacity:1" fill="#8c5e55" d="M 233.5,373.5 C 238.737,374.817 244.07,375.483 249.5,375.5C 253.97,376.486 258.637,376.819 263.5,376.5C 252.379,379.23 241.379,378.397 230.5,374C 231.448,373.517 232.448,373.351 233.5,373.5 Z"/></g>
<g><path style="opacity:1" fill="#e3c2a5" d="M 196.5,345.5 C 197.224,348.843 198.057,352.176 199,355.5C 200.844,358.528 202.678,361.528 204.5,364.5C 205.353,368.554 206.519,372.554 208,376.5C 211.22,380.385 212.386,384.718 211.5,389.5C 202.374,385.189 194.207,379.523 187,372.5C 183.721,366.459 182.554,360.126 183.5,353.5C 187.997,351.012 192.331,348.345 196.5,345.5 Z"/></g>
<g><path style="opacity:1" fill="#d4d1cd" d="M 232.5,366.5 C 237.5,367.167 242.5,367.833 247.5,368.5C 249.435,369.81 251.435,371.143 253.5,372.5C 252.473,374.024 250.973,374.691 249,374.5C 240.688,373.304 232.522,371.471 224.5,369C 221.083,367.76 220.917,366.593 224,365.5C 226.792,366.216 229.626,366.549 232.5,366.5 Z"/></g>
<g><path style="opacity:1" fill="#9f9c99" d="M 256.5,369.5 C 260.884,369.174 265.217,369.508 269.5,370.5C 270.246,371.736 270.579,373.07 270.5,374.5C 268.343,375.407 266.01,376.073 263.5,376.5C 258.637,376.819 253.97,376.486 249.5,375.5C 253.833,375.5 258.167,375.5 262.5,375.5C 262.5,374.167 262.5,372.833 262.5,371.5C 260.214,371.405 258.214,370.738 256.5,369.5 Z"/></g>
<g><path style="opacity:1" fill="#6a6866" d="M 279.5,363.5 C 278.735,366.096 278.401,368.763 278.5,371.5C 276.11,373.02 273.443,374.02 270.5,374.5C 270.579,373.07 270.246,371.736 269.5,370.5C 265.217,369.508 260.884,369.174 256.5,369.5C 259.083,368.776 261.749,367.943 264.5,367C 262.825,366.015 261.158,365.181 259.5,364.5C 266.196,364.609 272.863,364.276 279.5,363.5 Z"/></g>
<g><path style="opacity:1" fill="#bebcb8" d="M 213.5,359.5 C 219.557,362.597 225.891,364.93 232.5,366.5C 229.626,366.549 226.792,366.216 224,365.5C 220.917,366.593 221.083,367.76 224.5,369C 232.522,371.471 240.688,373.304 249,374.5C 250.973,374.691 252.473,374.024 253.5,372.5C 251.435,371.143 249.435,369.81 247.5,368.5C 250.455,369.159 253.455,369.492 256.5,369.5C 258.214,370.738 260.214,371.405 262.5,371.5C 262.5,372.833 262.5,374.167 262.5,375.5C 258.167,375.5 253.833,375.5 249.5,375.5C 244.07,375.483 238.737,374.817 233.5,373.5C 224.379,371.442 216.046,367.442 208.5,361.5C 208.281,360.325 208.614,359.325 209.5,358.5C 210.736,359.246 212.07,359.579 213.5,359.5 Z"/></g>
<g><path style="opacity:1" fill="#bd947d" d="M 199.5,343.5 C 198.414,343.62 197.747,344.287 197.5,345.5C 198.843,348.85 200.177,352.183 201.5,355.5C 202.882,358.394 204.882,360.894 207.5,363C 213.847,367.435 220.18,371.769 226.5,376C 235.805,378.549 245.139,380.882 254.5,383C 251.663,384.902 248.496,385.735 245,385.5C 238.893,385.013 233.06,383.68 227.5,381.5C 223.026,380.036 219.026,377.703 215.5,374.5C 212.833,372.167 210.167,369.833 207.5,367.5C 206.833,366.167 205.833,365.167 204.5,364.5C 202.678,361.528 200.844,358.528 199,355.5C 198.057,352.176 197.224,348.843 196.5,345.5C 196.179,343.952 195.179,343.285 193.5,343.5C 193.34,341.801 193.506,340.134 194,338.5C 194.333,339.167 194.667,339.833 195,340.5C 196.183,339.269 197.349,339.269 198.5,340.5C 198.291,341.086 197.957,341.586 197.5,342C 198.416,342.278 199.082,342.778 199.5,343.5 Z"/></g>
<g><path style="opacity:1" fill="#130907" d="M 288.5,363.5 C 285.945,367.114 282.612,369.781 278.5,371.5C 278.401,368.763 278.735,366.096 279.5,363.5C 280.5,363.167 281.167,362.5 281.5,361.5C 284.176,360.992 286.843,360.825 289.5,361C 288.748,361.671 288.414,362.504 288.5,363.5 Z"/></g>
<g><path style="opacity:1" fill="#9c7158" d="M 203.5,346.5 C 204.167,346.5 204.833,346.5 205.5,346.5C 216.556,350.764 227.89,354.098 239.5,356.5C 243.923,358.077 248.59,359.077 253.5,359.5C 266.567,360.599 279.567,360.599 292.5,359.5C 292.267,361.062 291.6,362.395 290.5,363.5C 289.833,363.5 289.167,363.5 288.5,363.5C 288.414,362.504 288.748,361.671 289.5,361C 286.843,360.825 284.176,360.992 281.5,361.5C 261.675,364.224 242.342,362.391 223.5,356C 218.077,352.955 212.411,350.455 206.5,348.5C 204.973,348.573 203.973,347.906 203.5,346.5 Z"/></g>
<g><path style="opacity:1" fill="#969490" d="M 217.5,355.5 C 230.962,360.987 244.962,363.987 259.5,364.5C 261.158,365.181 262.825,366.015 264.5,367C 261.749,367.943 259.083,368.776 256.5,369.5C 253.455,369.492 250.455,369.159 247.5,368.5C 242.5,367.833 237.5,367.167 232.5,366.5C 225.891,364.93 219.557,362.597 213.5,359.5C 212.571,358.685 211.571,357.852 210.5,357C 212.594,355.648 214.927,355.148 217.5,355.5 Z"/></g>
<g><path style="opacity:1" fill="#7a7875" d="M 206.5,349.5 C 210.362,351.262 214.028,353.262 217.5,355.5C 214.927,355.148 212.594,355.648 210.5,357C 211.571,357.852 212.571,358.685 213.5,359.5C 212.07,359.579 210.736,359.246 209.5,358.5C 208.614,359.325 208.281,360.325 208.5,361.5C 206.5,360.167 204.833,358.5 203.5,356.5C 206.001,356.489 206.168,355.822 204,354.5C 202.923,351.738 203.756,350.072 206.5,349.5 Z"/></g>
<g><path style="opacity:1" fill="#7c5541" d="M 206.5,349.5 C 206.5,349.167 206.5,348.833 206.5,348.5C 212.411,350.455 218.077,352.955 223.5,356C 242.342,362.391 261.675,364.224 281.5,361.5C 281.167,362.5 280.5,363.167 279.5,363.5C 272.863,364.276 266.196,364.609 259.5,364.5C 244.962,363.987 230.962,360.987 217.5,355.5C 214.028,353.262 210.362,351.262 206.5,349.5 Z"/></g>
<g><path style="opacity:1" fill="#5f5853" d="M 199.5,343.5 C 201.076,344.143 202.41,345.143 203.5,346.5C 203.973,347.906 204.973,348.573 206.5,348.5C 206.5,348.833 206.5,349.167 206.5,349.5C 203.756,350.072 202.923,351.738 204,354.5C 206.168,355.822 206.001,356.489 203.5,356.5C 202.833,356.167 202.167,355.833 201.5,355.5C 200.177,352.183 198.843,348.85 197.5,345.5C 197.747,344.287 198.414,343.62 199.5,343.5 Z"/></g>
<g><path style="opacity:1" fill="#b39070" d="M 273.5,326.5 C 275.019,329.526 275.685,332.859 275.5,336.5C 275.167,338.833 274.833,341.167 274.5,343.5C 271.226,344.871 268.226,346.704 265.5,349C 262.183,349.498 258.85,349.665 255.5,349.5C 253.801,349.66 252.134,349.494 250.5,349C 248.007,347.581 245.674,346.081 243.5,344.5C 251.173,347.12 258.84,347.12 266.5,344.5C 272.702,340.084 275.035,334.084 273.5,326.5 Z"/></g>
<g><path style="opacity:1" fill="#886445" d="M 273.5,326.5 C 275.035,334.084 272.702,340.084 266.5,344.5C 258.84,347.12 251.173,347.12 243.5,344.5C 241.873,342.37 240.04,340.37 238,338.5C 237.333,336.167 237.333,333.833 238,331.5C 244.829,339.814 253.662,342.981 264.5,341C 267.196,340.31 269.363,338.81 271,336.5C 271.885,333.048 272.718,329.714 273.5,326.5 Z"/></g>
<g><path style="opacity:1" fill="#ae8b6b" d="M 273.5,326.5 C 272.718,329.714 271.885,333.048 271,336.5C 269.363,338.81 267.196,340.31 264.5,341C 253.662,342.981 244.829,339.814 238,331.5C 237.333,333.833 237.333,336.167 238,338.5C 240.04,340.37 241.873,342.37 243.5,344.5C 241.167,343.167 238.833,341.833 236.5,340.5C 235.46,336.151 235.46,331.818 236.5,327.5C 238.667,329.963 241,332.297 243.5,334.5C 243.973,335.906 244.973,336.573 246.5,336.5C 248.385,338.311 250.719,339.478 253.5,340C 256.817,340.498 260.15,340.665 263.5,340.5C 264.713,337.447 266.88,335.113 270,333.5C 270.167,332.333 270.333,331.167 270.5,330C 270.065,324.177 268.731,318.677 266.5,313.5C 267.552,313.351 268.552,313.517 269.5,314C 272.83,317.457 274.163,321.624 273.5,326.5 Z"/></g>
<g><path style="opacity:1" fill="#dfbd9e" d="M 246.5,336.5 C 244.973,336.573 243.973,335.906 243.5,334.5C 241.69,330.69 241.19,326.69 242,322.5C 244.597,320.182 247.097,317.682 249.5,315C 253.738,314.177 257.738,314.844 261.5,317C 267.497,323.227 267.831,329.561 262.5,336C 257.177,336.499 251.844,336.666 246.5,336.5 Z"/></g>
<g><path style="opacity:1" fill="#ecccb0" d="M 252.5,317.5 C 260.531,318.503 263.864,322.836 262.5,330.5C 257.482,333.943 252.315,334.276 247,331.5C 244.143,324.892 245.977,320.225 252.5,317.5 Z"/></g>
<g><path style="opacity:1" fill="#e8c7aa" d="M 288.5,305.5 C 288.833,305.5 289.167,305.5 289.5,305.5C 291.684,307.585 294.351,308.585 297.5,308.5C 301.298,309.483 305.298,309.817 309.5,309.5C 313.616,309.459 317.616,308.793 321.5,307.5C 322.239,307.369 322.906,307.536 323.5,308C 321.8,311.291 320.633,314.791 320,318.5C 314.911,325.085 311.411,332.418 309.5,340.5C 303.997,345.896 298.497,346.229 293,341.5C 289.574,336.689 287.407,331.689 286.5,326.5C 287.796,323.402 289.462,320.569 291.5,318C 289.685,314.086 288.018,310.086 286.5,306C 287.094,305.536 287.761,305.369 288.5,305.5 Z"/></g>
<g><path style="opacity:1" fill="#a27f61" d="M 137.5,278.5 C 137.249,280.17 136.582,281.67 135.5,283C 137.917,291.161 140.417,299.328 143,307.5C 145.014,322.016 149.181,335.849 155.5,349C 160.13,357.093 164.63,365.26 169,373.5C 181.529,388.025 194.029,402.525 206.5,417C 210.798,419.328 215.131,421.661 219.5,424C 224.324,425.864 229.324,426.698 234.5,426.5C 239.988,426.039 245.321,425.039 250.5,423.5C 253.167,422.5 255.833,421.5 258.5,420.5C 256.536,422.127 255.203,424.127 254.5,426.5C 252.323,427.975 253.656,427.975 258.5,426.5C 256.898,428.074 254.898,428.741 252.5,428.5C 244.591,430.094 236.591,430.761 228.5,430.5C 213.574,426.874 200.574,419.874 189.5,409.5C 191.527,409.662 193.527,409.495 195.5,409C 188.038,399.869 180.205,391.036 172,382.5C 170.428,378.359 168.095,374.692 165,371.5C 164.027,369.608 163.36,367.608 163,365.5C 155.793,359.459 150.793,351.792 148,342.5C 142.995,327.484 137.995,312.484 133,297.5C 132.667,302.167 132.333,306.833 132,311.5C 130.644,312.38 129.144,312.714 127.5,312.5C 128.122,311.373 128.955,310.373 130,309.5C 130.17,299.422 131.003,289.422 132.5,279.5C 134.292,279.634 135.958,279.301 137.5,278.5 Z"/></g>
<g><path style="opacity:0.524" fill="#cbbdb2" d="M 252.5,428.5 C 250.123,429.887 247.457,430.721 244.5,431C 238.984,431.817 233.65,431.651 228.5,430.5C 236.591,430.761 244.591,430.094 252.5,428.5 Z"/></g>
</svg>
